<svg width="1225" height="875" viewBox="0 0 1225 875" fill="none" xmlns="http://www.w3.org/2000/svg">
<path fill-rule="evenodd" clip-rule="evenodd" d="M666.133 14.3484C782.091 41.9284 867.567 118.368 857.011 185.052C846.454 251.736 743.844 283.461 627.886 255.881C511.928 228.274 426.452 151.834 437.009 85.1501C447.566 18.466 550.176 -13.2317 666.133 14.3484Z" fill="white"/>
<path fill-rule="evenodd" clip-rule="evenodd" d="M584.83 63.8261C584.498 63.7984 584.167 63.8261 583.835 63.8261L583.863 63.7155L458.177 65.4289C458.177 65.4289 409.539 84.1104 409.539 124.541C408.489 168.84 442.176 187.798 442.176 187.798L571.952 202.998V202.915C572.809 203.053 573.665 203.219 574.522 203.302C602.047 205.319 626.67 175.749 629.516 137.226C632.363 98.7295 612.355 65.8434 584.83 63.8261Z" fill="#231F20"/>
<path d="M584.83 63.8261C584.498 63.7984 584.167 63.8261 583.835 63.8261L583.863 63.7155L458.177 65.4289C458.177 65.4289 409.539 84.1104 409.539 124.541C408.489 168.84 442.176 187.798 442.176 187.798L571.952 202.998V202.915C572.809 203.053 573.665 203.219 574.522 203.302C602.047 205.319 626.67 175.749 629.516 137.226C632.363 98.7295 612.355 65.8434 584.83 63.8261Z" stroke="white" stroke-width="17.517" stroke-miterlimit="22.926" stroke-linecap="round" stroke-linejoin="round"/>
<path fill-rule="evenodd" clip-rule="evenodd" d="M862.677 77.0258C849.66 36.844 807.019 31.234 807.019 31.234L686.225 51.8776C658.838 56.2993 641.622 91.0369 647.784 129.478C653.947 167.946 681.168 195.526 708.582 191.132C709.991 190.911 711.345 190.552 712.727 190.165L712.755 190.303L843.829 148.076C843.829 148.076 875.693 117.208 862.677 77.0258Z" fill="#231F20"/>
<path d="M862.677 77.0258C849.66 36.844 807.019 31.234 807.019 31.234L686.225 51.8776C658.838 56.2993 641.622 91.0369 647.784 129.478C653.947 167.946 681.168 195.526 708.582 191.132C709.991 190.911 711.345 190.552 712.727 190.165L712.755 190.303L843.829 148.076C843.829 148.076 875.693 117.208 862.677 77.0258Z" stroke="white" stroke-width="17.517" stroke-miterlimit="22.926" stroke-linecap="round" stroke-linejoin="round"/>
<path fill-rule="evenodd" clip-rule="evenodd" d="M584.83 63.8161C584.498 63.7884 584.167 63.8161 583.835 63.8161L583.863 63.7055L458.177 65.4189C458.177 65.4189 409.539 84.1004 409.539 124.531C408.489 168.83 442.176 187.788 442.176 187.788L571.952 202.988V202.905C572.809 203.043 573.665 203.209 574.522 203.292C602.047 205.309 626.67 175.739 629.516 137.216C632.363 98.7195 612.355 65.8335 584.83 63.8161ZM862.676 77.0258C849.659 36.844 807.018 31.234 807.018 31.234L686.224 51.8776C658.837 56.2993 641.621 91.0369 647.783 129.478C653.946 167.946 681.167 195.526 708.581 191.132C709.99 190.911 711.344 190.552 712.726 190.165L712.754 190.303L843.828 148.076C843.828 148.076 875.692 117.208 862.676 77.0258Z" fill="#007AFF"/>
<path fill-rule="evenodd" clip-rule="evenodd" d="M618.438 136.825C616.034 168.965 596.744 193.727 575.299 192.151C553.854 190.549 538.406 163.217 540.755 131.077C543.131 98.9374 562.449 74.1761 583.894 75.7514C605.339 77.3542 620.787 104.686 618.438 136.825ZM688.991 293.214C670.945 296.613 658.73 313.692 661.742 331.323C664.727 348.982 681.806 360.561 699.851 357.134C717.897 353.735 730.112 336.657 727.1 318.998C724.115 301.366 707.037 289.815 688.991 293.214Z" fill="white"/>
<path d="M688.994 293.213C670.949 296.613 658.734 313.691 661.746 331.323C664.731 348.982 681.809 360.561 699.855 357.134C717.901 353.735 730.116 336.656 727.104 318.997C724.119 301.366 707.04 289.814 688.994 293.213Z" stroke="#007AFF" stroke-width="4.59606" stroke-miterlimit="22.926"/>
<path fill-rule="evenodd" clip-rule="evenodd" d="M678.819 225.178C669.616 226.919 663.371 235.624 664.918 244.633C666.438 253.642 675.143 259.528 684.346 257.787C693.576 256.046 699.794 247.341 698.247 238.332C696.727 229.351 688.021 223.437 678.819 225.178Z" fill="white"/>
<path d="M678.819 225.178C669.616 226.919 663.371 235.624 664.918 244.633C666.438 253.642 675.143 259.528 684.346 257.787C693.576 256.046 699.794 247.341 698.247 238.332C696.727 229.351 688.021 223.437 678.819 225.178Z" stroke="#007AFF" stroke-width="4.59606" stroke-miterlimit="22.926"/>
<path fill-rule="evenodd" clip-rule="evenodd" d="M656.854 209.848C647.651 211.589 641.406 220.294 642.953 229.303C644.473 238.285 653.178 244.199 662.381 242.458C671.611 240.717 677.829 232.012 676.282 223.002C674.762 213.993 666.057 208.107 656.854 209.848Z" fill="white"/>
<path d="M656.854 209.848C647.651 211.589 641.406 220.294 642.953 229.303C644.473 238.285 653.178 244.199 662.381 242.458C671.611 240.717 677.829 232.012 676.282 223.002C674.762 213.993 666.056 208.107 656.854 209.848Z" stroke="#007AFF" stroke-width="4.59606" stroke-miterlimit="22.926"/>
<path fill-rule="evenodd" clip-rule="evenodd" d="M661.299 217.193C664.836 217.193 667.683 218.216 667.683 219.459C667.683 220.703 664.836 221.698 661.299 221.698C657.734 221.698 654.86 220.703 654.86 219.459C654.86 218.216 657.734 217.193 661.299 217.193ZM689.791 323.313C684.264 326.712 677.88 326.408 675.503 322.539C673.154 318.698 675.725 312.811 681.252 309.385C686.779 305.958 693.162 306.289 695.511 310.158C697.888 314 695.318 319.886 689.791 323.313Z" fill="white"/>
<path d="M689.795 323.313C684.267 326.712 677.884 326.409 675.507 322.54C673.158 318.698 675.728 312.812 681.255 309.385C686.782 305.958 693.166 306.29 695.515 310.159C697.892 314 695.322 319.887 689.795 323.313Z" stroke="#007AFF" stroke-width="4.59606" stroke-miterlimit="22.926"/>
<path fill-rule="evenodd" clip-rule="evenodd" d="M631.457 239.292C616.506 242.111 606.391 256.261 608.878 270.88C611.366 285.499 625.515 295.061 640.466 292.269C655.416 289.423 665.531 275.301 663.044 260.655C660.557 246.035 646.407 236.474 631.457 239.292Z" fill="white"/>
<path d="M631.457 239.292C616.506 242.111 606.391 256.261 608.878 270.88C611.366 285.499 625.515 295.061 640.466 292.269C655.416 289.423 665.531 275.301 663.044 260.655C660.557 246.035 646.407 236.474 631.457 239.292Z" stroke="#007AFF" stroke-width="4.59606" stroke-miterlimit="22.926"/>
<path fill-rule="evenodd" clip-rule="evenodd" d="M547.774 337.345L552.472 351.19L634.245 323.997L633.278 321.51L547.774 337.345ZM583.645 394.882L590.167 401.044L638.445 351.577L637.23 350.499L583.645 394.882ZM629.132 443.216L637.534 445.758L660.167 378.908L658.647 378.521L629.132 443.216ZM704.853 443.271L718.422 440.673L702.725 383.8L699.354 384.325L704.853 443.271ZM785.161 401.569L792.153 393.555L746.555 352.185L744.455 353.18L785.161 401.569ZM822.414 345.829L819.927 334.498L750.562 330.077L750.617 333.697L822.414 345.829ZM818.434 286.772V275.939L744.372 302.054L745.146 303.519L818.434 286.772Z" fill="white"/>
<path fill-rule="evenodd" clip-rule="evenodd" d="M736.965 115.165C742.105 147.25 728.674 176.073 706.98 179.556C685.287 183.038 663.51 159.852 658.37 127.767C653.23 95.7099 666.66 66.8863 688.354 63.4042C710.048 59.9221 731.824 83.0805 736.965 115.165Z" fill="white"/>
<path fill-rule="evenodd" clip-rule="evenodd" d="M806.912 43.0084C806.912 43.0084 726.604 56.6326 716.324 58.6223C716.324 58.6223 716.959 59.0645 718.037 59.9488C733.098 69.8975 745.396 90.2648 749.375 115.22C752.554 135.006 749.873 153.688 743.075 167.644L837.809 138.046C860.304 123.261 867.793 54.4494 806.912 43.0084ZM678.905 172.673C669.979 174.359 663.955 182.788 665.447 191.521C666.912 200.253 675.34 205.946 684.294 204.261C693.193 202.602 699.217 194.146 697.753 185.413C696.26 176.708 687.832 170.988 678.905 172.673Z" fill="white"/>
<path d="M678.905 172.675C669.979 174.361 663.955 182.79 665.447 191.522C666.912 200.255 675.34 205.948 684.294 204.262C693.193 202.604 699.217 194.148 697.753 185.415C696.26 176.71 687.832 170.989 678.905 172.675Z" stroke="#007AFF" stroke-width="4.78526" stroke-miterlimit="22.926"/>
<path fill-rule="evenodd" clip-rule="evenodd" d="M682.029 138.51C672.827 140.224 666.581 148.957 668.129 157.938C669.648 166.947 678.354 172.833 687.556 171.12C696.786 169.379 703.004 160.674 701.457 151.665C699.937 142.656 691.232 136.769 682.029 138.51Z" fill="white"/>
<path d="M682.029 138.51C672.827 140.224 666.581 148.957 668.129 157.938C669.648 166.947 678.354 172.833 687.556 171.12C696.786 169.379 703.004 160.674 701.457 151.665C699.937 142.656 691.232 136.769 682.029 138.51Z" stroke="#007AFF" stroke-width="4.59606" stroke-miterlimit="22.926"/>
<path fill-rule="evenodd" clip-rule="evenodd" d="M713.389 115.162C704.186 116.903 697.968 125.635 699.488 134.617C701.036 143.626 709.741 149.512 718.944 147.771C728.146 146.058 734.364 137.325 732.844 128.344C731.297 119.335 722.619 113.448 713.389 115.162Z" fill="white"/>
<path d="M713.389 115.162C704.186 116.903 697.968 125.635 699.488 134.617C701.036 143.626 709.741 149.512 718.944 147.771C728.146 146.058 734.364 137.325 732.844 128.344C731.297 119.335 722.619 113.448 713.389 115.162Z" stroke="#007AFF" stroke-width="4.59606" stroke-miterlimit="22.926"/>
<path fill-rule="evenodd" clip-rule="evenodd" d="M704.161 150.182C694.959 151.895 688.741 160.628 690.261 169.609C691.808 178.618 700.513 184.505 709.716 182.791C718.918 181.05 725.164 172.345 723.616 163.336C722.069 154.327 713.391 148.441 704.161 150.182Z" fill="white"/>
<path d="M704.161 150.182C694.959 151.895 688.741 160.628 690.261 169.609C691.808 178.618 700.513 184.505 709.716 182.791C718.918 181.05 725.164 172.345 723.616 163.336C722.069 154.327 713.391 148.441 704.161 150.182Z" stroke="#007AFF" stroke-width="4.59606" stroke-miterlimit="22.926"/>
<path fill-rule="evenodd" clip-rule="evenodd" d="M706.012 128.782C696.809 130.523 690.591 139.228 692.111 148.237C693.659 157.246 702.336 163.132 711.567 161.391C720.769 159.65 726.987 150.945 725.467 141.936C723.92 132.927 715.214 127.041 706.012 128.782Z" fill="white"/>
<path d="M706.012 128.782C696.809 130.523 690.591 139.228 692.111 148.237C693.659 157.246 702.336 163.132 711.567 161.391C720.769 159.65 726.987 150.945 725.467 141.936C723.92 132.927 715.214 127.041 706.012 128.782Z" stroke="#007AFF" stroke-width="4.59606" stroke-miterlimit="22.926"/>
<path fill-rule="evenodd" clip-rule="evenodd" d="M604.483 183.974C613.852 183.974 621.424 191.408 621.424 200.555C621.424 209.703 613.852 217.109 604.483 217.109C595.143 217.109 587.543 209.703 587.543 200.555C587.543 191.408 595.143 183.974 604.483 183.974Z" fill="white"/>
<path d="M604.483 183.974C613.852 183.974 621.424 191.408 621.424 200.555C621.424 209.703 613.852 217.109 604.483 217.109C595.143 217.109 587.543 209.703 587.543 200.555C587.543 191.408 595.143 183.974 604.483 183.974Z" stroke="#007AFF" stroke-width="4.59606" stroke-miterlimit="22.926"/>
<path fill-rule="evenodd" clip-rule="evenodd" d="M528.015 130.418C529.673 107.674 539.594 87.9426 551.366 75.6449L459.755 77.0543C446.601 82.7748 436.68 90.9272 430.13 100.323C425.018 107.674 421.95 115.771 420.955 124.034C419.96 132.297 421.011 140.837 424.189 149.017C428.002 158.938 434.966 168.389 445.109 176.376L543.186 187.789C533.348 173.861 526.384 153.134 528.015 130.418Z" fill="white"/>
<path fill-rule="evenodd" clip-rule="evenodd" d="M573.368 152.467C582.709 152.467 590.309 159.873 590.309 169.021C590.309 178.168 582.709 185.574 573.368 185.574C564 185.574 556.428 178.168 556.428 169.021C556.428 159.873 564 152.467 573.368 152.467Z" fill="white"/>
<path d="M573.368 152.467C582.709 152.467 590.309 159.873 590.309 169.021C590.309 178.168 582.709 185.574 573.368 185.574C564 185.574 556.428 178.168 556.428 169.021C556.428 159.873 564 152.467 573.368 152.467Z" stroke="#007AFF" stroke-width="4.59606" stroke-miterlimit="22.926"/>
<path fill-rule="evenodd" clip-rule="evenodd" d="M1017.49 486.499L1015.67 494.043C1006.1 491.583 997.233 490.368 989.302 490.368C976.672 490.368 969.763 493.021 968.52 498.299C968.022 500.454 968.741 502.168 970.786 503.494C972.803 504.821 976.893 506.147 982.89 507.584L991.347 509.519L999.388 511.343C1011.91 514.189 1017.3 519.191 1015.67 525.989C1014.34 531.295 1010.06 535.468 1002.54 538.619C995.105 541.769 985.737 543.4 974.434 543.4C966.613 543.4 956.719 542.294 944.809 540.249L946.937 531.599C958.46 535.054 968.326 536.795 976.479 536.795C983.277 536.795 988.997 535.966 993.474 534.252C998.062 532.511 1000.6 530.273 1001.32 527.427C1001.82 525.299 1001.02 523.447 998.863 522.231C996.735 521.015 992.148 519.495 984.935 517.754L976.175 515.626C967.304 513.471 961.417 511.232 958.35 508.911C955.31 506.672 954.177 503.605 955.089 499.846C956.333 494.762 960.091 490.782 966.309 488.019C972.499 485.172 980.652 483.763 990.628 483.763C998.78 483.763 1007.73 484.675 1017.49 486.499ZM876.301 521.209H909.38L899.21 494.043L876.301 521.209ZM846.482 541.99L895.866 485.172H909.712L931.875 541.99H917.118L912.033 527.841H870.497L858.476 541.99H846.482ZM770.651 541.99L772.171 535.468H796.6L806.991 491.694H782.534L784.192 485.172H846.979L845.377 491.694H821.03L810.528 535.468H834.986L833.355 541.99H770.651ZM753.24 540.249C743.347 542.294 734.31 543.4 726.047 543.4C711.704 543.4 700.706 540.664 693.161 535.275C685.644 529.858 682.881 522.756 685.036 513.885C687.164 504.931 693.272 497.691 703.359 492.109C713.445 486.609 725.633 483.763 739.699 483.763C747.741 483.763 756.087 484.675 764.847 486.388L762.913 494.347C754.235 491.694 745.806 490.368 737.765 490.368C728.396 490.368 720.161 492.495 713.031 496.779C705.901 501.173 701.618 506.672 699.987 513.277C698.357 519.993 700.512 525.492 706.316 529.776C712.091 534.031 720.465 536.27 731.132 536.27C737.654 536.27 745.585 535.164 754.954 533.036L753.24 540.249ZM629.434 480.281L647.563 470.415H666.714L640.847 480.281H629.434ZM614.594 521.209H647.673L637.476 494.043L614.594 521.209ZM584.665 541.99L634.022 485.172H647.977L670.169 541.99H655.411L650.216 527.841H608.79L596.686 541.99H584.665ZM503.223 541.99L516.848 485.172H533.567L545.146 520.186H545.257L573.251 485.172H590.662L577.12 541.99H565.735L577.424 493.214H577.231L548.02 529.969H536.303L524.503 494.236H524.282L512.896 541.99H503.223ZM443.476 511.757H450.882C458.427 511.757 464.534 510.735 469.425 508.579C474.317 506.562 477.163 503.798 477.965 500.233C478.794 497 477.661 494.762 474.704 493.518C471.664 492.302 465.75 491.694 456.907 491.694H448.257L443.476 511.757ZM422.39 541.99L435.931 485.172H461.273C471.857 485.172 479.098 485.697 482.967 486.803C491.119 489.041 494.574 493.131 493.247 498.824C492.225 502.803 489.986 506.147 486.228 508.8C482.552 511.453 476.97 513.885 469.315 516.124L494.38 541.99H477.467L454.558 518.362H441.956L436.346 541.99H422.39ZM352.749 521.209H385.856L375.769 494.043L352.749 521.209ZM322.93 541.99L372.315 485.172H386.243L408.434 541.99H393.677L388.509 527.841H347.056L334.952 541.99H322.93ZM252.295 541.99L265.946 485.172H330.475L328.955 491.694H278.244L273.574 511.232H316.823L315.193 517.865H272.054L266.25 541.99H252.295ZM1115.95 749.034C1096.39 749.034 1080.94 743.452 1069.64 732.343C1058.42 721.15 1053.33 706.586 1054.66 688.679C1055.49 676.878 1058.64 666.073 1063.92 656.318C1069.31 646.535 1077.26 637.166 1087.85 628.213C1093.24 623.515 1100.17 619.756 1108.52 617.02C1116.76 614.257 1125.21 612.93 1133.86 612.93C1153.21 612.93 1168.49 618.43 1179.57 629.429C1190.57 640.427 1195.43 654.881 1194.22 672.899C1193.42 684.202 1190.57 694.593 1185.76 704.155C1180.98 713.716 1174.07 722.67 1164.92 731.237C1159.01 736.737 1151.58 741.103 1142.82 744.253C1134.06 747.431 1125.1 749.034 1115.95 749.034ZM1104.54 695.698C1104.04 702.414 1104.84 707.498 1107.19 711.063C1109.43 714.628 1113 716.48 1117.78 716.48C1124.3 716.48 1130.1 711.588 1135.27 701.806C1140.49 692.023 1143.62 679.918 1144.67 665.465C1145.16 658.86 1144.14 653.858 1141.79 650.404C1139.44 646.949 1135.8 645.208 1130.82 645.208C1124.49 645.208 1118.8 649.989 1113.72 659.662C1108.63 669.334 1105.56 681.355 1104.54 695.698ZM1043.05 558.074C1039.6 568.962 1035.31 576.894 1030.42 581.896C1025.45 586.87 1019.45 589.33 1012.32 589.33C1010.5 589.33 1008.65 589.219 1006.93 588.915C1005.19 588.611 1003.45 588.197 1001.74 587.699L994.082 585.046C992.784 584.549 991.457 584.217 990.213 584.024C988.997 583.72 987.671 583.609 986.455 583.609C983.415 583.609 980.762 584.632 978.413 586.677C976.175 588.722 974.461 591.651 973.328 595.327H958.571C961.832 584.742 966.088 576.811 971.283 571.394C976.479 566.005 982.697 563.352 989.937 563.352C991.457 563.352 993.17 563.463 995.105 563.878C997.039 564.264 998.974 564.679 1001.02 565.287L1008.65 567.829C1009.97 568.354 1011.19 568.769 1012.32 568.962C1013.43 569.266 1014.56 569.377 1015.47 569.377C1018.51 569.377 1021.08 568.437 1023.1 566.613C1025.26 564.9 1026.97 562.026 1028.52 558.074H1043.05ZM987.671 684.312C975.677 684.81 966.309 686.938 959.594 690.724C952.961 694.372 949.396 699.374 948.899 705.564C948.595 709.35 949.507 712.39 951.635 714.628C953.68 716.867 956.637 718 960.506 718C967.221 718 973.135 714.932 978.026 708.935C982.89 702.939 986.151 694.676 987.671 684.312ZM978.413 722.974C973.135 731.32 966.696 737.649 959.29 741.822C951.856 745.994 943.095 748.012 933.008 748.012C921.429 748.012 912.254 744.557 905.428 737.649C898.713 730.712 895.756 721.758 896.474 710.676C897.69 694.676 906.23 682.682 922.341 674.529C938.508 666.377 962.136 662.094 993.17 661.707C993.585 660.574 993.999 659.468 994.193 658.335C994.386 657.23 994.497 656.207 994.607 655.185C994.801 651.205 993.778 648.165 991.457 646.12C988.997 644.075 985.35 643.08 980.458 643.08C975.152 643.08 970.565 644.407 966.613 646.949C962.633 649.381 959.594 653.057 957.355 657.617L915.93 649.492C921.927 637.774 931.074 628.821 943.51 622.603C955.918 616.495 970.869 613.455 988.5 613.455C1007.02 613.455 1020.97 616.91 1030.53 623.736C1040.1 630.645 1044.38 640.427 1043.47 653.14C1043.36 654.577 1043.16 656.318 1042.86 658.225C1042.55 660.076 1042.06 662.619 1041.34 665.659L1029.01 715.153C1027.99 719.326 1027.27 722.891 1026.78 725.738C1026.25 728.695 1025.86 731.127 1025.75 733.282C1025.56 735.189 1025.56 737.234 1025.56 739.169C1025.56 741.214 1025.64 743.231 1025.86 745.276H976.368C976.175 743.949 976.175 742.623 976.175 741.296C976.285 739.97 976.368 738.367 976.479 736.212C976.672 733.863 976.893 731.624 977.308 729.496C977.612 727.258 978.026 725.13 978.413 722.974ZM811.164 749.034C791.626 749.034 776.15 743.452 764.847 732.343C753.655 721.15 748.57 706.586 749.897 688.679C750.698 676.878 753.848 666.073 759.154 656.318C764.543 646.535 772.475 637.166 783.059 628.213C788.475 623.515 795.384 619.756 803.73 617.02C811.966 614.257 820.422 612.93 829.072 612.93C848.417 612.93 863.699 618.43 874.781 629.429C885.78 640.427 890.671 654.881 889.455 672.899C888.626 684.202 885.779 694.593 880.999 704.155C876.218 713.716 869.309 722.67 860.134 731.237C854.22 736.737 846.786 741.103 838.053 744.253C829.293 747.431 820.339 749.034 811.164 749.034ZM799.778 695.698C799.253 702.414 800.082 707.498 802.404 711.063C804.642 714.628 808.207 716.48 812.988 716.48C819.51 716.48 825.313 711.588 830.509 701.806C835.704 692.023 838.855 679.918 839.877 665.465C840.375 658.86 839.352 653.858 837.031 650.404C834.682 646.949 831.006 645.208 826.032 645.208C819.731 645.208 814.011 649.989 808.926 659.662C803.841 669.334 800.773 681.355 799.778 695.698ZM614.594 743.756L624.377 704.652C628.854 705.564 632.612 706.282 635.569 706.586C638.526 707.001 641.179 707.194 643.5 707.194C652.869 707.194 659.888 705.066 664.476 700.7C669.063 696.223 673.043 687.159 676.497 673.203L701.535 571.615H755.893L727.18 686.026C721.598 708.106 712.727 724.107 700.733 733.973C688.712 743.839 672.02 748.73 650.547 748.73C644.634 748.73 638.609 748.343 632.612 747.514C626.726 746.713 620.701 745.386 614.594 743.756ZM464.037 749.034C444.498 749.034 429.133 743.452 417.83 732.343C406.527 721.15 401.525 706.586 402.852 688.679C403.681 676.878 406.831 666.073 412.137 656.318C417.416 646.535 425.458 637.166 435.959 628.213C441.431 623.515 448.367 619.756 456.603 617.02C464.948 614.257 473.405 612.93 482.055 612.93C501.4 612.93 516.682 618.43 527.653 629.429C538.763 640.427 543.654 654.881 542.327 672.899C541.498 684.202 538.762 694.593 533.982 704.155C529.09 713.716 522.264 722.67 513.089 731.237C507.092 736.737 499.769 741.103 491.009 744.253C482.276 747.431 473.294 749.034 464.037 749.034ZM452.623 695.698C452.126 702.414 453.038 707.498 455.387 711.063C457.625 714.628 461.08 716.48 465.971 716.48C472.493 716.48 478.296 711.588 483.492 701.806C488.687 692.023 491.727 679.918 492.86 665.465C493.247 658.86 492.335 653.858 489.986 650.404C487.665 646.949 483.989 645.208 479.015 645.208C472.686 645.208 466.883 649.989 461.798 659.662C456.713 669.334 453.646 681.355 452.623 695.698ZM391.245 558.074C387.791 568.962 383.535 576.894 378.616 581.896C373.641 586.87 367.534 589.33 360.515 589.33C358.58 589.33 356.839 589.219 355.126 588.915C353.385 588.611 351.671 588.197 349.93 587.699L342.303 585.046C340.866 584.549 339.539 584.217 338.323 584.024C337.107 583.72 335.864 583.609 334.648 583.609C331.497 583.609 328.844 584.632 326.606 586.677C324.367 588.722 322.626 591.651 321.521 595.327H306.653C310.025 584.742 314.198 576.811 319.504 571.394C324.671 566.005 330.889 563.352 338.019 563.352C339.539 563.352 341.391 563.463 343.298 563.878C345.232 564.264 347.167 564.679 349.212 565.287L356.756 567.829C358.166 568.354 359.381 568.769 360.515 568.962C361.648 569.266 362.642 569.377 363.665 569.377C366.732 569.377 369.164 568.437 371.292 566.613C373.337 564.9 375.161 562.026 376.709 558.074H391.245ZM335.864 684.312C323.87 684.81 314.502 686.938 307.786 690.724C301.071 694.372 297.506 699.374 297.091 705.564C296.787 709.35 297.699 712.39 299.855 714.628C301.872 716.867 304.829 718 308.698 718C315.414 718 321.217 714.932 326.109 708.935C331.083 702.939 334.261 694.676 335.864 684.312ZM326.606 722.974C321.328 731.32 314.916 737.649 307.482 741.822C299.938 745.994 291.205 748.012 281.229 748.012C269.511 748.012 260.336 744.557 253.621 737.649C246.906 730.712 243.838 721.758 244.667 710.676C245.8 694.676 254.45 682.682 270.534 674.529C286.59 666.377 310.218 662.094 341.391 661.707C341.778 660.574 342.082 659.468 342.303 658.335C342.496 657.23 342.69 656.207 342.69 655.185C342.994 651.205 341.999 648.165 339.539 646.12C337.19 644.075 333.542 643.08 328.54 643.08C323.373 643.08 318.785 644.407 314.806 646.949C310.826 649.381 307.676 653.057 305.548 657.617L264.122 649.492C270.009 637.774 279.184 628.821 291.592 622.603C304.111 616.495 319.089 613.455 336.693 613.455C355.126 613.455 369.164 616.91 378.726 623.736C388.205 630.645 392.461 640.427 391.66 653.14C391.466 654.577 391.245 656.318 390.941 658.225C390.748 660.076 390.14 662.619 389.532 665.659L377.096 715.153C376.184 719.326 375.493 722.891 374.968 725.738C374.36 728.695 374.056 731.127 373.945 733.282C373.752 735.189 373.752 737.234 373.752 739.169C373.752 741.214 373.835 743.231 373.945 745.276H324.589C324.368 743.949 324.285 742.623 324.367 741.296C324.367 739.97 324.589 738.367 324.671 736.212C324.893 733.863 325.086 731.624 325.39 729.496C325.805 727.258 326.109 725.13 326.606 722.974ZM124.84 689.397C126.885 695.809 130.754 700.783 136.447 704.155C142.057 707.498 149.077 709.239 157.643 709.239C164.773 709.239 170.466 707.913 174.722 705.37C178.923 702.828 181.244 699.374 181.548 694.897C181.963 688.789 174.335 683.069 158.555 678.094C154.051 676.657 150.596 675.552 148.165 674.64C130.865 668.615 118.539 661.486 111.106 653.25C103.672 645.125 100.411 635.039 101.35 622.907C102.456 607.348 110.083 594.194 124.232 583.83C138.382 573.329 155.709 568.133 176.049 568.133C194.481 568.133 210.04 572.03 222.78 579.74C235.409 587.478 243.562 598.062 247.016 611.3L201.501 622.907C200.091 617.324 197.024 612.93 192.132 609.89C187.351 606.74 181.355 605.109 174.225 605.109C168.421 605.109 163.64 606.325 159.854 608.674C156.206 611.106 154.161 614.257 153.968 618.126C153.553 623.625 160.158 628.821 173.921 633.712C175.745 634.32 177.071 634.817 177.983 635.121C200.091 643.08 215.263 651.205 223.277 659.468C231.43 667.814 234.995 678.288 234.083 691.028C232.867 707.802 224.714 721.648 209.543 732.564C194.371 743.341 175.358 748.73 152.448 748.73C131.777 748.73 114.671 744.475 101.129 735.797C87.505 727.147 78.938 715.236 75.373 699.871L124.84 689.397Z" fill="white"/>
<path d="M99.8269 841.281C103.254 841.281 107.675 839.954 110.77 838.075C113.755 836.307 116.519 833.654 118.729 830.558L120.719 827.574L115.192 823.926L113.313 826.689C109.665 831.995 105.575 834.648 100.49 834.648C91.3152 834.648 85.6776 826.137 86.783 813.977C87.7779 801.928 94.8525 793.417 104.027 793.417C109.112 793.417 112.76 796.07 115.524 801.375L116.961 804.139L123.041 800.491L121.604 797.507C119.945 794.411 117.624 791.758 114.971 789.99C112.097 788.111 108.007 786.784 104.58 786.784C101.596 786.784 97.7266 787.779 94.963 789.216C92.3101 790.542 89.8781 792.532 87.7779 794.964C83.3562 799.938 80.1505 807.124 79.5978 813.977C78.9346 820.941 80.9243 828.127 84.4616 833.101C86.1197 835.533 88.22 837.523 90.6519 838.849C93.1944 840.286 96.8423 841.281 99.8269 841.281Z" fill="white"/>
<path d="M138.105 841.281C141.863 841.281 146.506 839.402 149.38 836.528C152.254 833.654 154.465 829.232 154.796 825.253L157.007 800.16H149.822L147.611 825.253C147.058 831.112 143.853 834.759 138.768 834.759C133.572 834.759 130.809 831.112 131.362 825.253L133.572 800.16H126.387L124.176 825.253C123.845 829.232 125.282 833.654 127.714 836.528C130.035 839.402 134.236 841.281 138.105 841.281Z" fill="white"/>
<path d="M162.982 841.27H168.84L172.488 800.149H165.303L161.655 841.27H162.982ZM169.946 788.431C168.619 788.431 166.077 790.532 165.966 791.748V792.632C165.856 793.848 167.956 795.948 169.283 795.948C170.499 795.948 173.041 793.848 173.152 792.632V791.748C173.262 790.532 171.162 788.431 169.946 788.431Z" fill="white"/>
<path d="M180.52 835.422C183.726 838.96 189.253 841.281 194.338 841.281H204.839L209.593 786.784H202.518L201.413 800.381C201.413 800.381 201.744 800.27 201.302 800.602C201.081 800.934 201.413 800.823 200.528 800.823H197.875C192.79 800.823 186.821 803.144 183.063 806.792C179.083 810.33 176.209 815.967 175.767 821.052C175.325 826.137 177.204 831.775 180.52 835.422ZM200.86 806.24L198.428 834.759H195.001C187.042 834.759 182.289 829.122 182.952 821.052C183.726 812.983 189.364 807.455 197.323 807.455H199.976C200.749 807.455 201.413 807.345 200.749 807.455L200.86 806.24Z" fill="white"/>
<path d="M226.262 841.385C229.91 841.385 234.553 839.837 237.316 837.737C240.191 835.526 242.512 831.768 242.733 828.562L244.17 812.865C244.391 809.66 242.844 806.012 240.522 803.801C238.201 801.59 234 800.153 230.463 800.153C225.931 800.153 220.514 802.474 217.751 805.901L215.429 808.554L220.625 812.755L222.836 809.991C224.715 807.78 226.705 806.786 229.91 806.786C234.995 806.786 237.316 809.107 236.985 812.865L236.764 814.966C236.653 815.85 236.985 815.629 236.653 815.739C236.322 816.071 236.432 815.85 236.432 815.85H228.473C224.825 815.85 220.404 817.287 217.64 819.387C214.655 821.598 212.334 825.357 212.003 828.562C211.781 831.768 213.44 835.526 215.982 837.737C218.524 839.837 222.614 841.385 226.262 841.385ZM235.769 822.482C235.99 822.482 236.653 822.482 236.101 822.593L235.548 828.562C235.437 830.331 234.885 831.436 233.116 832.763C231.126 834.2 229.579 834.753 226.926 834.753C224.273 834.753 222.836 834.2 221.067 832.763C219.519 831.436 219.077 830.331 219.188 828.562C219.409 826.794 220.072 825.799 221.841 824.362C223.83 822.925 225.267 822.482 227.92 822.482H235.769Z" fill="white"/>
<path d="M255.941 840.28L258.042 816.292C258.594 810.323 261.91 806.786 267.106 806.786H268.985L269.538 800.153H267.659C263.79 800.153 259.147 802.032 256.273 804.906C253.399 807.78 251.188 812.313 250.856 816.292L248.646 841.274H255.831L255.941 840.28Z" fill="white"/>
<path d="M295.508 835.422C298.714 838.96 304.241 841.281 309.326 841.281H319.827L324.581 786.784H317.506L316.401 800.381C316.401 800.381 316.732 800.27 316.29 800.602C316.069 800.934 316.401 800.823 315.516 800.823H312.863C307.778 800.823 301.809 803.144 298.051 806.792C294.071 810.33 291.197 815.967 290.755 821.052C290.313 826.137 292.192 831.775 295.508 835.422ZM315.848 806.24L313.416 834.759H309.989C302.03 834.759 297.277 829.122 297.94 821.052C298.714 812.983 304.352 807.455 312.311 807.455H314.964C315.737 807.455 316.401 807.345 315.737 807.455L315.848 806.24Z" fill="white"/>
<path d="M341.252 841.385C344.9 841.385 349.542 839.837 352.306 837.737C355.18 835.526 357.501 831.768 357.723 828.562L359.16 812.865C359.381 809.66 357.833 806.012 355.512 803.801C353.19 801.59 348.99 800.153 345.452 800.153C340.92 800.153 335.504 802.474 332.74 805.901L330.419 808.554L335.614 812.755L337.825 809.991C339.704 807.78 341.694 806.786 344.9 806.786C349.985 806.786 352.306 809.107 351.974 812.865L351.753 814.966C351.643 815.85 351.974 815.629 351.643 815.739C351.311 816.071 351.422 815.85 351.422 815.85H343.463C339.815 815.85 335.393 817.287 332.63 819.387C329.645 821.598 327.324 825.357 326.992 828.562C326.771 831.768 328.429 835.526 330.971 837.737C333.514 839.837 337.604 841.385 341.252 841.385ZM350.758 822.482C350.979 822.482 351.643 822.482 351.09 822.593L350.537 828.562C350.427 830.331 349.874 831.436 348.105 832.763C346.116 834.2 344.568 834.753 341.915 834.753C339.262 834.753 337.825 834.2 336.056 832.763C334.509 831.436 334.067 830.331 334.177 828.562C334.398 826.794 335.062 825.799 336.83 824.362C338.82 822.925 340.257 822.482 342.91 822.482H350.758Z" fill="white"/>
<path d="M396.538 841.274C400.628 841.274 405.16 839.837 407.702 837.737C410.245 835.637 412.124 832.1 412.345 828.783C412.677 825.467 411.129 822.04 408.255 820.272C406.044 818.835 402.175 817.729 399.412 817.066C396.869 816.403 395.211 815.961 393.553 814.966C391.895 813.86 391.674 813.418 391.895 811.539C392.226 807.78 393.664 806.786 399.633 806.786C402.396 806.786 403.833 807.78 405.381 809.991L407.26 812.755L413.008 808.554L411.129 805.901C408.918 802.474 404.386 800.153 400.185 800.153C395.985 800.153 391.563 801.369 389.021 803.359C386.81 805.238 385.041 808.554 384.82 811.539C384.489 814.966 386.036 818.392 388.91 820.272C391.232 821.709 394.99 822.814 397.754 823.477C400.296 824.141 401.954 824.583 403.612 825.578C405.16 826.572 405.491 827.015 405.27 828.783C404.939 832.984 402.838 834.753 397.201 834.753C390.9 834.753 390.347 833.316 389.021 831.436L387.142 828.783L381.393 832.984L383.162 835.637C384.046 836.853 386.147 838.732 388.579 839.837C390.568 840.832 393.111 841.274 396.538 841.274Z" fill="white"/>
<path d="M431.334 841.282C435.093 841.282 439.736 839.403 442.61 836.529C445.484 833.655 447.695 829.233 448.026 825.254L450.237 800.161H443.052L440.841 825.254C440.288 831.112 437.083 834.76 431.998 834.76C426.802 834.76 424.039 831.112 424.591 825.254L426.802 800.161H419.617L417.406 825.254C417.075 829.233 418.512 833.655 420.944 836.529C423.265 839.403 427.465 841.282 431.334 841.282Z" fill="white"/>
<path d="M467.05 841.386C470.698 841.386 475.341 839.839 478.104 837.739C480.978 835.528 483.3 831.769 483.521 828.564L484.958 812.867C485.179 809.661 483.631 806.013 481.31 803.802C478.988 801.591 474.788 800.154 471.251 800.154C466.718 800.154 461.302 802.476 458.538 805.903L456.217 808.556L461.412 812.756L463.623 809.993C465.502 807.782 467.492 806.787 470.698 806.787C475.783 806.787 478.104 809.108 477.772 812.867L477.551 814.967C477.441 815.851 477.772 815.63 477.441 815.741C477.109 816.072 477.22 815.851 477.22 815.851H469.261C465.613 815.851 461.191 817.288 458.428 819.389C455.443 821.599 453.122 825.358 452.79 828.564C452.569 831.769 454.227 835.528 456.77 837.739C459.312 839.839 463.402 841.386 467.05 841.386ZM476.556 822.484C476.778 822.484 477.441 822.484 476.888 822.594L476.335 828.564C476.225 830.332 475.672 831.438 473.903 832.764C471.914 834.201 470.366 834.754 467.713 834.754C465.06 834.754 463.623 834.201 461.854 832.764C460.307 831.438 459.865 830.332 459.975 828.564C460.196 826.795 460.86 825.8 462.628 824.363C464.618 822.926 466.055 822.484 468.708 822.484H476.556Z" fill="white"/>
<path d="M522.348 841.275C526.438 841.275 530.97 839.838 533.513 837.737C536.055 835.637 537.934 832.1 538.155 828.783C538.487 825.467 536.939 822.04 534.065 820.272C531.854 818.835 527.986 817.729 525.222 817.066C522.68 816.403 521.021 815.961 519.363 814.966C517.705 813.86 517.484 813.418 517.705 811.539C518.037 807.781 519.474 806.786 525.443 806.786C528.207 806.786 529.644 807.781 531.191 809.991L533.07 812.755L538.819 808.554L536.939 805.901C534.729 802.475 530.196 800.153 525.996 800.153C521.795 800.153 517.374 801.369 514.831 803.359C512.62 805.238 510.852 808.554 510.631 811.539C510.299 814.966 511.846 818.393 514.721 820.272C517.042 821.709 520.8 822.814 523.564 823.477C526.106 824.141 527.764 824.583 529.423 825.578C530.97 826.573 531.302 827.015 531.081 828.783C530.749 832.984 528.649 834.753 523.011 834.753C516.71 834.753 516.158 833.316 514.831 831.436L512.952 828.783L507.204 832.984L508.972 835.637C509.857 836.853 511.957 838.732 514.389 839.838C516.379 840.832 518.921 841.275 522.348 841.275Z" fill="white"/>
<path d="M557.115 841.386C560.762 841.386 565.405 839.839 568.169 837.739C571.043 835.528 573.364 831.769 573.585 828.564L575.022 812.867C575.243 809.661 573.696 806.013 571.374 803.802C569.053 801.591 564.852 800.154 561.315 800.154C556.783 800.154 551.366 802.476 548.603 805.903L546.281 808.556L551.477 812.756L553.688 809.993C555.567 807.782 557.557 806.787 560.762 806.787C565.847 806.787 568.169 809.108 567.837 812.867L567.616 814.967C567.505 815.851 567.837 815.63 567.505 815.741C567.174 816.072 567.284 815.851 567.284 815.851H559.325C555.677 815.851 551.256 817.288 548.492 819.389C545.508 821.599 543.186 825.358 542.855 828.564C542.634 831.769 544.292 835.528 546.834 837.739C549.377 839.839 553.467 841.386 557.115 841.386ZM566.621 822.484C566.842 822.484 567.505 822.484 566.953 822.594L566.4 828.564C566.289 830.332 565.737 831.438 563.968 832.764C561.978 834.201 560.431 834.754 557.778 834.754C555.125 834.754 553.688 834.201 551.919 832.764C550.371 831.438 549.929 830.332 550.04 828.564C550.261 826.795 550.924 825.8 552.693 824.363C554.683 822.926 556.12 822.484 558.773 822.484H566.621Z" fill="white"/>
<path d="M578.226 839.621C604.977 760.915 591.933 797.284 591.933 797.284H590.054L593.039 801.816L607.63 791.314L603.872 785.898L590.386 795.625L575.573 839.621H578.226ZM605.972 801.152L603.872 825.25C603.319 831.109 600.114 834.757 595.029 834.757C589.833 834.757 587.07 831.109 587.622 825.25L589.833 800.158H582.648L580.437 825.25C580.106 829.23 581.543 833.652 583.975 836.526C586.296 839.4 590.496 841.279 594.365 841.279C598.124 841.279 602.767 839.4 605.641 836.526C608.515 833.652 610.726 829.23 611.057 825.25L613.268 800.158H606.083L605.972 801.152Z" fill="white"/>
<path d="M622.154 835.423C625.36 838.96 630.887 841.281 635.972 841.281H646.473L651.226 786.784H644.152L643.046 800.381C643.046 800.381 643.378 800.27 642.936 800.602C642.715 800.934 643.046 800.823 642.162 800.823H639.509C634.424 800.823 628.455 803.144 624.696 806.792C620.717 810.33 617.843 815.967 617.401 821.052C616.958 826.137 618.838 831.775 622.154 835.423ZM642.494 806.24L640.062 834.759H636.635C628.676 834.759 623.923 829.122 624.586 821.052C625.36 812.983 630.997 807.456 638.956 807.456H641.609C642.383 807.456 643.046 807.345 642.383 807.456L642.494 806.24Z" fill="white"/>
<path d="M670.073 841.276C676.595 841.276 681.348 838.07 683.449 835.638L685.77 832.875L680.575 828.785L678.364 831.438C676.374 833.759 674.495 834.754 670.736 834.754C664.988 834.754 661.783 830.443 661.34 823.479L661.451 823.368L660.014 822.373C660.014 822.373 660.788 822.926 661.451 822.373C661.562 822.152 661.23 822.484 661.23 822.484H670.184C674.274 822.484 678.806 821.047 681.57 819.057C684.112 817.178 686.102 813.862 686.323 810.988C686.544 808.224 685.328 805.129 683.228 803.36C681.238 801.37 677.479 800.154 673.611 800.154C671.4 800.154 668.194 801.039 665.983 802.034C663.993 803.139 662.114 804.576 660.567 806.345C657.25 809.993 654.708 815.63 654.266 820.715C653.934 823.479 654.266 825.247 654.266 825.247C654.597 828.674 656.034 832.543 657.914 835.086C660.677 838.844 665.541 841.276 670.073 841.276ZM673.168 806.787C678.806 806.787 679.469 808.556 679.248 810.988C679.138 812.425 678.806 812.977 677.369 814.083C675.6 815.409 673.832 815.851 670.736 815.851H661.893C661.783 815.851 661.562 815.851 662.556 815.741C664.104 810.435 667.752 806.787 673.168 806.787Z" fill="white"/>
<path d="M735.806 829.672L734.148 831.441C732.269 833.762 730.39 834.647 726.631 834.647C720.994 834.647 717.677 830.446 717.346 823.371V823.261C717.235 823.261 716.793 823.04 717.456 822.376C717.567 822.155 717.014 822.376 717.125 822.376H726.079C730.169 822.376 734.811 821.05 737.464 819.06C739.896 817.181 742.107 813.754 742.328 810.991C742.549 808.227 741.223 805.021 739.233 803.363C737.133 801.374 733.264 800.158 729.616 800.158C727.295 800.158 724.199 801.042 721.989 802.037C719.888 803.032 718.009 804.579 716.461 806.348C713.035 809.996 710.603 815.633 710.161 820.718C710.05 821.713 710.05 822.819 710.05 823.813L710.161 825.25C710.492 828.677 712.04 832.546 713.808 835.089C716.572 838.847 721.436 841.279 725.968 841.279C732.49 841.279 737.354 838.073 739.344 835.531L741.554 832.878L736.469 828.677L735.806 829.672ZM729.063 806.79C734.701 806.79 735.364 808.559 735.143 810.991C735.032 812.317 734.701 812.98 733.264 813.975C731.495 815.412 729.726 815.854 726.631 815.854H717.788C717.788 815.744 717.456 815.744 718.451 815.633C719.999 810.438 723.647 806.79 729.063 806.79ZM719.999 797.284L722.983 801.816L737.575 791.314L733.927 785.898L719.446 796.399L719.999 797.284Z" fill="white"/>
<path d="M795.659 840.28L797.76 816.292C798.091 812.313 796.654 807.781 794.222 804.906C791.901 802.032 787.7 800.153 783.942 800.153C780.073 800.153 775.43 802.032 772.556 804.906C769.682 807.781 767.471 812.313 767.14 816.292L764.929 841.275H772.114L774.325 816.292C774.878 810.323 778.194 806.786 783.389 806.786C788.474 806.786 791.127 810.323 790.574 816.292L788.364 841.275H795.549L795.659 840.28Z" fill="white"/>
<path d="M818.662 841.281C821.094 841.281 823.415 840.729 825.626 839.623C827.726 838.628 830.6 836.86 832.259 835.091C835.685 831.443 838.338 825.806 838.781 820.721C839.223 815.636 837.565 809.998 834.801 806.35C833.364 804.471 830.822 802.813 828.942 801.708C826.842 800.713 824.742 800.16 822.31 800.16C819.989 800.16 817.667 800.713 815.567 801.708C813.467 802.813 810.482 804.471 808.824 806.35C805.397 809.998 802.855 815.636 802.412 820.721C801.97 825.806 803.518 831.443 806.281 835.091C807.718 836.86 810.371 838.628 812.251 839.623C814.24 840.729 816.341 841.281 818.662 841.281ZM821.757 806.792C828.5 806.792 832.259 812.43 831.595 820.721C830.822 829.011 826.068 834.649 819.325 834.649C812.693 834.649 808.824 829.011 809.598 820.721C810.261 812.43 815.125 806.792 821.757 806.792Z" fill="white"/>
<path d="M856.963 841.282C861.053 841.282 865.585 839.845 868.127 837.745C870.67 835.645 872.549 832.107 872.77 828.791C873.102 825.475 871.554 822.048 868.68 820.279C866.469 818.842 862.6 817.737 859.837 817.074C857.294 816.41 855.636 815.968 853.978 814.973C852.32 813.868 852.099 813.426 852.32 811.547C852.651 807.788 854.088 806.793 860.058 806.793C862.821 806.793 864.258 807.788 865.806 809.999L867.685 812.763L873.433 808.562L871.554 805.909C869.343 802.482 864.811 800.161 860.61 800.161C856.41 800.161 851.988 801.377 849.446 803.367C847.235 805.246 845.466 808.562 845.245 811.547C844.914 814.973 846.461 818.4 849.335 820.279C851.657 821.716 855.415 822.822 858.178 823.485C860.721 824.148 862.379 824.59 864.037 825.585C865.585 826.58 865.916 827.022 865.695 828.791C865.364 832.992 863.263 834.76 857.626 834.76C851.325 834.76 850.772 833.323 849.446 831.444L847.567 828.791L841.818 832.992L843.587 835.645C844.471 836.861 846.572 838.74 849.004 839.845C850.993 840.84 853.536 841.282 856.963 841.282Z" fill="white"/>
<path d="M890.432 841.284C894.522 841.284 899.054 839.847 901.597 837.747C904.139 835.646 906.018 832.109 906.239 828.793C906.571 825.476 905.023 822.05 902.149 820.281C899.938 818.844 896.069 817.739 893.306 817.075C890.764 816.412 889.105 815.97 887.447 814.975C885.789 813.87 885.568 813.427 885.789 811.548C886.121 807.79 887.558 806.795 893.527 806.795C896.291 806.795 897.728 807.79 899.275 810.001L901.154 812.764L906.903 808.564L905.023 805.911C902.813 802.484 898.28 800.162 894.08 800.162C889.879 800.162 885.458 801.378 882.915 803.368C880.704 805.247 878.936 808.564 878.715 811.548C878.383 814.975 879.93 818.402 882.805 820.281C885.126 821.718 888.884 822.823 891.648 823.487C894.19 824.15 895.848 824.592 897.507 825.587C899.054 826.582 899.386 827.024 899.165 828.793C898.833 832.993 896.733 834.762 891.095 834.762C884.794 834.762 884.242 833.325 882.915 831.446L881.036 828.793L875.288 832.993L877.056 835.646C877.941 836.862 880.041 838.741 882.473 839.847C884.463 840.842 887.005 841.284 890.432 841.284Z" fill="white"/>
<path d="M925.202 841.394C928.849 841.394 933.492 839.846 936.256 837.746C939.13 835.535 941.451 831.777 941.672 828.571L943.109 812.874C943.33 809.668 941.783 806.02 939.461 803.81C937.14 801.599 932.939 800.162 929.402 800.162C924.87 800.162 919.453 802.483 916.69 805.91L914.368 808.563L919.564 812.763L921.775 810C923.654 807.789 925.644 806.794 928.849 806.794C933.934 806.794 936.256 809.116 935.924 812.874L935.703 814.974C935.592 815.859 935.924 815.638 935.592 815.748C935.261 816.08 935.371 815.859 935.371 815.859H927.412C923.765 815.859 919.343 817.296 916.579 819.396C913.595 821.607 911.273 825.365 910.942 828.571C910.721 831.777 912.379 835.535 914.921 837.746C917.464 839.846 921.554 841.394 925.202 841.394ZM934.708 822.491C934.929 822.491 935.592 822.491 935.04 822.602L934.487 828.571C934.376 830.339 933.824 831.445 932.055 832.771C930.065 834.208 928.518 834.761 925.865 834.761C923.212 834.761 921.775 834.208 920.006 832.771C918.459 831.445 918.016 830.339 918.127 828.571C918.348 826.802 919.011 825.807 920.78 824.37C922.77 822.933 924.207 822.491 926.86 822.491H934.708Z" fill="white"/>
<path d="M1019.08 804.914C1016.65 802.04 1012.45 800.161 1008.69 800.161C1004.82 800.161 1000.17 802.04 997.301 804.914C996.527 805.688 995.974 806.351 996.417 805.799C996.748 806.462 996.195 805.688 995.532 804.914C993.211 802.04 989.01 800.161 985.252 800.161C981.383 800.161 976.74 802.04 973.866 804.914C970.992 807.788 968.781 812.32 968.45 816.3L966.239 841.282H973.424L975.635 816.3C976.187 810.331 979.504 806.793 984.699 806.793C989.784 806.793 992.437 810.331 991.884 816.3L989.674 841.282H996.859L999.07 816.3C999.622 810.331 1002.94 806.793 1008.13 806.793C1013.22 806.793 1015.87 810.331 1015.32 816.3L1013.11 841.282H1020.29L1022.5 816.3C1022.84 812.32 1021.51 807.788 1019.08 804.914Z" fill="white"/>
<path d="M1031.88 841.274H1037.74L1041.39 800.152H1034.2L1030.55 841.274H1031.88ZM1038.84 788.435C1037.52 788.435 1034.97 790.535 1034.86 791.751V792.636C1034.75 793.851 1036.85 795.952 1038.18 795.952C1039.4 795.952 1041.94 793.851 1042.05 792.636V791.751C1042.16 790.535 1040.06 788.435 1038.84 788.435Z" fill="white"/>
<path d="M1060.38 841.282C1064.47 841.282 1069 839.845 1071.55 837.745C1074.09 835.645 1075.97 832.107 1076.19 828.791C1076.52 825.475 1074.97 822.048 1072.1 820.279C1069.89 818.842 1066.02 817.737 1063.26 817.074C1060.71 816.41 1059.06 815.968 1057.4 814.973C1055.74 813.868 1055.52 813.426 1055.74 811.547C1056.07 807.788 1057.51 806.793 1063.48 806.793C1066.24 806.793 1067.68 807.788 1069.23 809.999L1071.11 812.763L1076.85 808.562L1074.97 805.909C1072.76 802.482 1068.23 800.161 1064.03 800.161C1059.83 800.161 1055.41 801.377 1052.87 803.367C1050.66 805.246 1048.89 808.562 1048.67 811.547C1048.33 814.973 1049.88 818.4 1052.76 820.279C1055.08 821.716 1058.84 822.822 1061.6 823.485C1064.14 824.148 1065.8 824.59 1067.46 825.585C1069 826.58 1069.34 827.022 1069.12 828.791C1068.78 832.992 1066.68 834.76 1061.05 834.76C1054.75 834.76 1054.19 833.323 1052.87 831.444L1050.99 828.791L1045.24 832.992L1047.01 835.645C1047.89 836.861 1049.99 838.74 1052.42 839.845C1054.41 840.84 1056.96 841.282 1060.38 841.282Z" fill="white"/>
<path d="M1093.85 841.275C1097.94 841.275 1102.47 839.838 1105.01 837.738C1107.56 835.638 1109.44 832.101 1109.66 828.784C1109.99 825.468 1108.44 822.041 1105.57 820.273C1103.36 818.836 1099.49 817.73 1096.72 817.067C1094.18 816.404 1092.52 815.961 1090.86 814.967C1089.21 813.861 1088.98 813.419 1089.21 811.54C1089.54 807.781 1090.97 806.787 1096.94 806.787C1099.71 806.787 1101.14 807.781 1102.69 809.992L1104.57 812.756L1110.32 808.555L1108.44 805.902C1106.23 802.475 1101.7 800.154 1097.5 800.154C1093.3 800.154 1088.87 801.37 1086.33 803.36C1084.12 805.239 1082.35 808.555 1082.13 811.54C1081.8 814.967 1083.35 818.393 1086.22 820.273C1088.54 821.71 1092.3 822.815 1095.06 823.478C1097.61 824.142 1099.27 824.584 1100.92 825.579C1102.47 826.573 1102.8 827.016 1102.58 828.784C1102.25 832.985 1100.15 834.754 1094.51 834.754C1088.21 834.754 1087.66 833.316 1086.33 831.437L1084.45 828.784L1078.7 832.985L1080.47 835.638C1081.36 836.854 1083.46 838.733 1085.89 839.838C1087.88 840.833 1090.42 841.275 1093.85 841.275Z" fill="white"/>
<path d="M1146.42 813.192V812.86C1146.64 809.655 1145.09 805.896 1142.77 803.796C1140.45 801.585 1136.36 800.148 1132.82 800.148C1128.18 800.148 1122.76 802.469 1120 805.896L1117.68 808.549L1122.87 812.75L1125.08 809.986C1126.96 807.775 1129.06 806.78 1132.27 806.78C1137.35 806.78 1139.56 809.102 1139.23 812.86L1139.01 814.961C1138.9 815.845 1139.23 815.624 1139.01 815.734C1138.57 816.066 1138.9 815.845 1138.79 815.845H1130.83C1127.18 815.845 1122.65 817.282 1119.89 819.382C1116.9 821.593 1114.69 825.351 1114.36 828.557C1114.14 831.763 1115.69 835.521 1118.23 837.732C1120.77 839.832 1124.97 841.269 1128.62 841.269C1132.16 841.269 1136.8 839.832 1139.56 837.732C1142.55 835.521 1144.76 831.763 1144.98 828.557L1146.2 815.071V814.85L1146.42 813.192ZM1137.79 828.557C1137.68 830.326 1137.13 831.431 1135.36 832.647C1133.48 834.195 1131.94 834.637 1129.28 834.637C1126.63 834.637 1125.08 834.195 1123.42 832.647C1121.77 831.431 1121.43 830.326 1121.55 828.557C1121.77 826.788 1122.32 825.794 1124.2 824.357C1126.08 822.92 1127.62 822.477 1130.28 822.477H1138.13C1138.24 822.477 1138.9 822.477 1138.35 822.588L1137.79 828.557ZM1130.06 794.068C1130.5 793.073 1130.5 793.516 1130.06 793.847C1129.95 793.737 1129.95 794.068 1130.39 794.51C1131.49 795.505 1133.82 797.163 1135.92 797.163C1136.25 797.163 1136.58 797.053 1136.91 797.053C1138.9 796.611 1141.88 793.958 1143.32 791.415L1144.54 788.983L1138.57 786.109L1136.69 789.425C1135.8 791.194 1135.58 790.863 1136.14 790.531C1136.14 790.531 1136.25 790.199 1135.47 789.536C1134.15 788.431 1131.6 786.551 1129.17 787.215C1127.51 787.546 1124.64 789.978 1123.42 792.189L1122.1 794.51L1128.18 797.606L1130.06 794.068Z" fill="white"/>
<path d="M1166.74 841.281C1169.17 841.281 1171.49 840.729 1173.7 839.623C1175.8 838.628 1178.68 836.86 1180.33 835.091C1183.76 831.443 1186.41 825.806 1186.86 820.721C1187.3 815.636 1185.64 809.998 1182.88 806.35C1181.44 804.471 1178.9 802.813 1177.02 801.708C1174.92 800.713 1172.82 800.16 1170.38 800.16C1168.06 800.16 1165.74 800.713 1163.64 801.708C1161.54 802.813 1158.56 804.471 1156.9 806.35C1153.47 809.998 1150.93 815.636 1150.49 820.721C1150.05 825.806 1151.59 831.443 1154.36 835.091C1155.79 836.86 1158.45 838.628 1160.33 839.623C1162.32 840.729 1164.42 841.281 1166.74 841.281ZM1169.83 806.792C1176.58 806.792 1180.33 812.43 1179.67 820.721C1178.9 829.011 1174.14 834.649 1167.4 834.649C1160.77 834.649 1156.9 829.011 1157.67 820.721C1158.34 812.43 1163.2 806.792 1169.83 806.792Z" fill="white"/>
</svg>
