<svg width="1287" height="893" viewBox="0 0 1287 893" fill="none" xmlns="http://www.w3.org/2000/svg">
<g clip-path="url(#clip0_1_451)">
<path fill-rule="evenodd" clip-rule="evenodd" d="M1069.21 569.688L1067.17 578.101C1056.5 575.374 1046.62 574.004 1037.76 574.004C1023.67 574.004 1015.96 576.963 1014.59 582.869C1014.03 585.252 1014.82 587.184 1017.09 588.664C1019.36 590.13 1023.9 591.61 1030.6 593.199L1040.03 595.364L1049 597.405C1062.97 600.584 1068.99 606.146 1067.17 613.764C1065.69 619.669 1060.92 624.327 1052.53 627.835C1044.24 631.356 1033.78 633.178 1021.18 633.178C1012.44 633.178 1001.42 631.931 988.131 629.657L990.515 620.011C1003.35 623.861 1014.35 625.793 1023.45 625.793C1031.06 625.793 1037.41 624.889 1042.41 622.957C1047.52 621.025 1050.36 618.532 1051.16 615.353C1051.73 612.969 1050.83 610.914 1048.43 609.558C1046.04 608.201 1040.93 606.489 1032.88 604.557L1023.11 602.173C1013.23 599.789 1006.64 597.295 1003.23 594.679C999.832 592.185 998.571 588.774 999.599 584.567C1000.96 578.895 1005.16 574.47 1012.09 571.401C1019.01 568.222 1028.1 566.633 1039.24 566.633C1048.32 566.633 1058.32 567.647 1069.21 569.688ZM911.694 608.421H948.604L937.246 578.101L911.694 608.421ZM878.429 631.589L933.506 568.222H948.947L973.704 631.589H957.236L951.564 615.805H905.228L891.828 631.589H878.429ZM793.812 631.589L795.525 624.327H822.776L834.353 575.484H807.102L808.924 568.222H878.99L877.168 575.484H850.027L838.34 624.327H865.591L863.769 631.589H793.812ZM774.398 629.657C763.383 631.931 753.272 633.178 744.078 633.178C728.062 633.178 715.786 630.123 707.387 624.094C698.989 618.08 695.92 610.119 698.304 600.241C700.688 590.253 707.497 582.183 718.745 575.936C729.994 569.812 743.626 566.633 759.286 566.633C768.26 566.633 777.577 567.647 787.346 569.579L785.181 578.443C775.535 575.484 766.109 574.004 757.135 574.004C746.681 574.004 737.488 576.388 729.528 581.17C721.582 586.047 716.814 592.185 715.005 599.57C713.183 607.064 715.567 613.188 722.047 617.956C728.514 622.724 737.831 625.232 749.75 625.232C757.012 625.232 765.876 623.985 776.33 621.601L774.398 629.657ZM636.294 562.769L656.516 551.754H677.862L649.022 562.769H636.294ZM619.716 608.421H656.626L645.268 578.101L619.716 608.421ZM586.327 631.589L641.404 568.222H656.968L681.726 631.589H665.257L659.462 615.805H613.235L599.726 631.589H586.327ZM495.477 631.589L510.698 568.222H529.318L542.265 607.283H542.375L573.612 568.222H593.027L577.928 631.589H565.2L578.257 577.183H578.038L545.444 618.189H532.387L519.206 578.32H518.987L506.259 631.589H495.477ZM428.808 597.857H437.097C445.51 597.857 452.319 596.72 457.772 594.336C463.225 592.062 466.403 589.006 467.308 585.02C468.212 581.389 466.965 578.895 463.677 577.525C460.265 576.169 453.689 575.484 443.797 575.484H434.152L428.808 597.857ZM405.298 631.589L420.41 568.222H448.688C460.498 568.222 468.554 568.784 472.87 570.031C481.954 572.538 485.817 577.073 484.338 583.43C483.214 587.869 480.707 591.61 476.515 594.569C472.418 597.528 466.17 600.241 457.662 602.748L485.598 631.589H466.746L441.18 605.242H427.109L420.862 631.589H405.298ZM327.614 608.421H364.538L353.289 578.101L327.614 608.421ZM294.348 631.589L349.426 568.222H364.99L389.747 631.589H373.279L367.483 615.805H321.257L307.748 631.589H294.348ZM215.527 631.589L230.749 568.222H302.747L301.048 575.484H244.491L239.271 597.295H287.539L285.717 604.68H237.558L231.091 631.589H215.527Z" fill="#C4161D"/>
<path fill-rule="evenodd" clip-rule="evenodd" d="M1179.05 862.585C1157.24 862.585 1139.98 856.351 1127.37 843.965C1114.88 831.47 1109.21 815.235 1110.69 795.245C1111.59 782.065 1115.11 770.035 1121.02 759.13C1127.03 748.224 1135.9 737.784 1147.71 727.782C1153.72 722.562 1161.45 718.356 1170.76 715.287C1179.96 712.218 1189.38 710.752 1199.03 710.752C1220.62 710.752 1237.65 716.876 1250.02 729.152C1262.29 741.414 1267.74 757.54 1266.38 777.639C1265.48 790.244 1262.29 801.835 1256.96 812.508C1251.61 823.181 1243.9 833.183 1233.68 842.718C1227.09 848.843 1218.8 853.734 1209.03 857.255C1199.26 860.776 1189.26 862.585 1179.05 862.585ZM1166.33 803.082C1165.76 810.576 1166.67 816.248 1169.28 820.235C1171.78 824.209 1175.75 826.25 1181.1 826.25C1188.36 826.25 1194.84 820.797 1200.62 809.905C1206.41 798.985 1209.94 785.476 1211.07 769.35C1211.65 761.966 1210.51 756.403 1207.89 752.54C1205.28 748.676 1201.19 746.744 1195.63 746.744C1188.59 746.744 1182.23 752.087 1176.55 762.87C1170.87 773.666 1167.46 787.066 1166.33 803.082ZM1097.73 649.537C1093.88 661.689 1089.11 670.54 1083.65 676.103C1078.09 681.679 1071.39 684.405 1063.43 684.405C1061.39 684.405 1059.35 684.282 1057.42 683.939C1055.49 683.611 1053.55 683.145 1051.62 682.583L1043.1 679.624C1041.63 679.062 1040.15 678.719 1038.8 678.5C1037.43 678.158 1035.95 678.034 1034.59 678.034C1031.18 678.034 1028.23 679.172 1025.62 681.446C1023.12 683.72 1021.19 687.008 1019.95 691.105H1003.48C1007.11 679.295 1011.88 670.43 1017.67 664.416C1023.47 658.387 1030.39 655.442 1038.46 655.442C1040.15 655.442 1042.09 655.551 1044.24 656.003C1046.4 656.456 1048.57 656.921 1050.83 657.593L1059.35 660.442C1060.83 661.004 1062.19 661.456 1063.43 661.689C1064.69 662.032 1065.94 662.141 1066.95 662.141C1070.36 662.141 1073.2 661.114 1075.48 659.072C1077.86 657.141 1079.79 653.962 1081.49 649.537H1097.73ZM1035.95 790.354C1022.55 790.929 1012.11 793.313 1004.61 797.519C997.23 801.602 993.257 807.165 992.681 814.097C992.339 818.304 993.366 821.701 995.75 824.209C998.025 826.702 1001.31 827.949 1005.63 827.949C1013.12 827.949 1019.71 824.551 1025.17 817.851C1030.62 811.138 1034.25 801.945 1035.95 790.354ZM1025.62 833.511C1019.71 842.828 1012.56 849.87 1004.27 854.529C995.983 859.187 986.214 861.461 974.966 861.461C962.019 861.461 951.798 857.598 944.194 849.87C936.7 842.143 933.398 832.155 934.192 819.77C935.562 801.945 945.098 788.545 963.046 779.462C981.104 770.378 1007.45 765.596 1042.09 765.144C1042.54 763.898 1042.99 762.651 1043.22 761.404C1043.46 760.157 1043.57 759.02 1043.68 757.883C1043.91 753.444 1042.77 750.046 1040.15 747.772C1037.43 745.497 1033.35 744.36 1027.89 744.36C1021.99 744.36 1016.88 745.84 1012.45 748.676C1008.01 751.402 1004.61 755.499 1002.11 760.609L955.894 751.526C962.58 738.455 972.815 728.467 986.667 721.535C1000.52 714.725 1017.22 711.314 1036.87 711.314C1057.53 711.314 1073.09 715.177 1083.76 722.781C1094.44 730.509 1099.21 741.414 1098.19 755.609C1098.07 757.198 1097.85 759.13 1097.51 761.281C1097.16 763.336 1096.6 766.172 1095.81 769.583L1082.07 824.77C1080.93 829.429 1080.13 833.402 1079.56 836.58C1079 839.882 1078.54 842.609 1078.43 844.993C1078.2 847.144 1078.2 849.418 1078.2 851.569C1078.2 853.844 1078.31 856.118 1078.54 858.392H1023.34C1023.12 856.913 1023.12 855.433 1023.12 853.967C1023.23 852.487 1023.34 850.665 1023.47 848.281C1023.69 845.664 1023.92 843.171 1024.37 840.787C1024.71 838.293 1025.17 835.909 1025.62 833.511ZM839.026 862.585C817.228 862.585 799.965 856.351 787.347 843.965C774.865 831.47 769.179 815.235 770.659 795.245C771.563 782.065 775.084 770.035 780.99 759.13C787.018 748.224 795.869 737.784 807.679 727.782C813.707 722.562 821.421 718.356 830.737 715.287C839.931 712.218 849.37 710.752 859.016 710.752C880.595 710.752 897.625 716.876 910.01 729.152C922.273 741.414 927.726 757.54 926.355 777.639C925.451 790.244 922.273 801.835 916.943 812.508C911.6 823.181 903.872 833.183 893.652 842.718C887.075 848.843 878.772 853.734 869.004 857.255C859.235 860.776 849.247 862.585 839.026 862.585ZM826.312 803.082C825.736 810.576 826.641 816.248 829.258 820.235C831.751 824.209 835.738 826.25 841.068 826.25C848.343 826.25 854.81 820.797 860.605 809.905C866.401 798.985 869.922 785.476 871.045 769.35C871.621 761.966 870.483 756.403 867.867 752.54C865.263 748.676 861.167 746.744 855.604 746.744C848.562 746.744 842.205 752.087 836.533 762.87C830.847 773.666 827.449 787.066 826.312 803.082ZM619.731 856.68L630.637 813.07C635.624 814.097 639.83 814.892 643.118 815.235C646.42 815.687 649.366 815.92 651.982 815.92C662.422 815.92 670.259 813.536 675.37 808.644C680.48 803.644 684.919 793.546 688.783 777.982L716.719 664.635H777.359L745.34 792.286C739.092 816.933 729.2 834.772 715.815 845.787C702.402 856.803 683.782 862.256 659.819 862.256C653.229 862.256 646.53 861.79 639.83 860.886C633.24 859.981 626.54 858.502 619.731 856.68ZM451.758 862.585C429.96 862.585 412.807 856.351 400.202 843.965C387.597 831.47 382.035 815.235 383.515 795.245C384.419 782.065 387.94 770.035 393.845 759.13C399.75 748.224 408.724 737.784 420.411 727.782C426.549 722.562 434.276 718.356 443.469 715.287C452.786 712.218 462.212 710.752 471.871 710.752C493.436 710.752 510.48 716.876 522.742 729.152C535.114 741.414 540.581 757.54 539.101 777.639C538.183 790.244 535.114 801.835 529.785 812.508C524.332 823.181 516.728 833.183 506.507 842.718C499.807 848.843 491.628 853.734 481.859 857.255C472.09 860.776 462.103 862.585 451.758 862.585ZM439.044 803.082C438.469 810.576 439.496 816.248 442.113 820.235C444.607 824.209 448.47 826.25 453.923 826.25C461.185 826.25 467.665 820.797 473.447 809.905C479.242 798.985 482.654 785.476 483.901 769.35C484.353 761.966 483.339 756.403 480.722 752.54C478.105 748.676 474.022 746.744 468.46 746.744C461.417 746.744 454.951 752.087 449.265 762.87C443.593 773.666 440.181 787.066 439.044 803.082ZM370.567 649.537C366.704 661.689 361.936 670.54 356.483 676.103C350.92 681.679 344.097 684.405 336.26 684.405C334.109 684.405 332.177 684.282 330.246 683.939C328.314 683.611 326.382 683.145 324.45 682.583L315.942 679.624C314.353 679.062 312.873 678.719 311.503 678.5C310.147 678.158 308.776 678.034 307.42 678.034C303.899 678.034 300.94 679.172 298.446 681.446C295.952 683.72 294.021 687.008 292.774 691.105H276.182C279.936 679.295 284.594 670.43 290.5 664.416C296.295 658.387 303.214 655.442 311.174 655.442C312.873 655.442 314.914 655.551 317.065 656.003C319.23 656.456 321.395 656.921 323.656 657.593L332.068 660.442C333.657 661.004 335.014 661.456 336.26 661.689C337.507 662.032 338.644 662.141 339.781 662.141C343.193 662.141 345.919 661.114 348.303 659.072C350.578 657.141 352.619 653.962 354.318 649.537H370.567ZM308.776 790.354C295.377 790.929 284.937 793.313 277.443 797.519C269.948 801.602 265.961 807.165 265.509 814.097C265.167 818.304 266.194 821.701 268.578 824.209C270.853 826.702 274.141 827.949 278.456 827.949C285.951 827.949 292.431 824.551 297.884 817.851C303.447 811.138 306.968 801.945 308.776 790.354ZM298.446 833.511C292.541 842.828 285.389 849.87 277.1 854.529C268.688 859.187 258.919 861.461 247.794 861.461C234.737 861.461 224.516 857.598 217.022 849.87C209.528 842.143 206.116 832.155 207.02 819.77C208.281 801.945 217.926 788.545 235.874 779.462C253.809 770.378 280.169 765.596 314.914 765.144C315.367 763.898 315.709 762.651 315.942 761.404C316.161 760.157 316.394 759.02 316.394 757.883C316.737 753.444 315.599 750.046 312.873 747.772C310.256 745.497 306.173 744.36 300.611 744.36C294.815 744.36 289.705 745.84 285.28 748.676C280.84 751.402 277.319 755.499 274.935 760.609L228.722 751.526C235.299 738.455 245.52 728.467 259.385 721.535C273.346 714.725 290.047 711.314 309.694 711.314C330.246 711.314 345.919 715.177 356.592 722.781C367.156 730.509 371.924 741.414 371.019 755.609C370.786 757.198 370.567 759.13 370.225 761.281C369.992 763.336 369.32 766.172 368.635 769.583L354.77 824.77C353.756 829.429 352.962 833.402 352.4 836.58C351.715 839.882 351.372 842.609 351.249 844.993C351.03 847.144 351.03 849.418 351.03 851.569C351.03 853.844 351.139 856.118 351.249 858.392H296.172C295.952 856.913 295.829 855.433 295.952 853.967C295.952 852.487 296.172 850.665 296.295 848.281C296.514 845.664 296.747 843.171 297.09 840.787C297.542 838.293 297.884 835.909 298.446 833.511ZM73.3549 796.04C75.6293 803.192 79.945 808.754 86.3022 812.508C92.5498 816.248 100.387 818.18 109.922 818.18C117.869 818.18 124.24 816.714 129.008 813.864C133.666 811.028 136.269 807.165 136.612 802.178C137.064 795.355 128.556 788.997 110.95 783.435C105.949 781.846 102.086 780.599 99.3591 779.571C80.0547 772.872 66.3127 764.925 58.0237 755.718C49.7347 746.634 46.104 735.386 47.1178 721.877C48.3783 704.504 56.8865 689.844 72.6699 678.267C88.467 666.567 107.771 660.771 130.487 660.771C151.039 660.771 168.411 665.087 182.605 673.719C196.69 682.35 205.774 694.16 209.637 708.93L158.876 721.877C157.286 715.629 153.875 710.752 148.422 707.34C143.092 703.819 136.393 701.997 128.432 701.997C121.966 701.997 116.622 703.367 112.43 705.984C108.333 708.697 106.059 712.218 105.84 716.534C105.388 722.672 112.759 728.467 128.09 733.92C130.145 734.591 131.611 735.167 132.638 735.509C157.286 744.36 174.207 753.444 183.181 762.651C192.265 771.967 196.238 783.654 195.21 797.862C193.854 816.591 184.77 832.045 167.85 844.198C150.915 856.241 129.679 862.256 104.127 862.256C81.0822 862.256 61.9969 857.474 46.8986 847.829C31.677 838.17 22.1412 824.88 18.168 807.74L73.3549 796.04Z" fill="#2E3192"/>
<path fill-rule="evenodd" clip-rule="evenodd" d="M586.274 97.3929C585.904 97.3655 585.547 97.4066 585.177 97.3929L585.191 97.2833L444.415 99.2014C444.415 99.2014 389.913 120.123 389.913 165.404C388.749 215.042 426.481 236.265 426.481 236.265L571.86 253.281V253.213C572.819 253.35 573.765 253.555 574.737 253.624C605.578 255.898 633.158 222.783 636.35 179.639C639.542 136.495 617.114 99.6673 586.274 97.3929Z" fill="#231F20"/>
<path fill-rule="evenodd" clip-rule="evenodd" d="M623.909 179.173C621.251 215.179 599.618 242.923 575.6 241.142C551.583 239.375 534.265 208.753 536.923 172.747C539.581 136.755 561.201 109.011 585.232 110.778C609.249 112.56 626.567 143.181 623.909 179.173Z" fill="#99D420"/>
<path fill-rule="evenodd" clip-rule="evenodd" d="M897.514 112.19C882.936 67.1825 835.162 60.8938 835.162 60.8938L699.866 84.0345C669.162 88.9668 649.885 127.877 656.79 170.953C663.696 214.014 694.194 244.951 724.897 240.019C726.473 239.758 728.021 239.361 729.528 238.936L729.569 239.087L876.415 191.805C876.415 191.805 912.106 157.197 897.514 112.19Z" fill="#231F20"/>
<path fill-rule="evenodd" clip-rule="evenodd" d="M702.95 354.366C682.728 358.175 669.054 377.301 672.425 397.071C675.781 416.842 694.908 429.789 715.13 425.98C735.339 422.171 749.012 403.031 745.656 383.261C742.299 363.491 723.172 350.543 702.95 354.366Z" fill="#00ADEF"/>
<path d="M702.95 354.366C682.728 358.175 669.054 377.301 672.425 397.071C675.781 416.842 694.908 429.789 715.13 425.98C735.339 422.171 749.012 403.031 745.656 383.261C742.299 363.491 723.172 350.543 702.95 354.366Z" stroke="#231F20" stroke-width="1.756" stroke-miterlimit="22.926"/>
<path fill-rule="evenodd" clip-rule="evenodd" d="M691.563 278.162C681.246 280.107 674.273 289.862 675.985 299.946C677.698 310.03 687.453 316.634 697.77 314.688C708.086 312.743 715.06 302.988 713.347 292.904C711.621 282.82 701.866 276.216 691.563 278.162Z" fill="#ED1C24"/>
<path d="M691.563 278.162C681.246 280.107 674.273 289.862 675.985 299.946C677.698 310.03 687.453 316.634 697.77 314.688C708.086 312.743 715.06 302.988 713.347 292.904C711.621 282.82 701.866 276.216 691.563 278.162Z" stroke="#231F20" stroke-width="1.756" stroke-miterlimit="22.926"/>
<path fill-rule="evenodd" clip-rule="evenodd" d="M666.958 260.967C656.641 262.913 649.667 272.668 651.38 282.752C653.092 292.835 662.847 299.439 673.164 297.494C683.481 295.548 690.441 285.793 688.728 275.709C687.016 265.626 677.261 259.022 666.958 260.967Z" fill="#FFF200"/>
<path d="M666.958 260.967C656.641 262.913 649.667 272.668 651.38 282.752C653.092 292.835 662.847 299.439 673.164 297.494C683.481 295.548 690.441 285.793 688.728 275.709C687.016 265.626 677.261 259.022 666.958 260.967Z" stroke="#231F20" stroke-width="1.756" stroke-miterlimit="22.926"/>
<path fill-rule="evenodd" clip-rule="evenodd" d="M703.855 388.07C697.662 391.906 690.51 391.522 687.866 387.22C685.221 382.918 688.099 376.314 694.291 372.478C700.47 368.642 707.636 369.025 710.267 373.328C712.911 377.63 710.034 384.233 703.855 388.07ZM638.515 293.972C621.773 297.123 610.442 312.975 613.224 329.348C616.005 345.734 631.857 356.462 648.599 353.297C665.355 350.146 676.686 334.294 673.891 317.908C671.11 301.535 655.271 290.807 638.515 293.972Z" fill="white"/>
<path d="M638.515 293.972C621.773 297.123 610.442 312.975 613.224 329.348C616.005 345.734 631.857 356.462 648.599 353.297C665.355 350.146 676.686 334.294 673.891 317.908C671.11 301.535 655.271 290.807 638.515 293.972Z" stroke="#231F20" stroke-width="1.756" stroke-miterlimit="22.926"/>
<path fill-rule="evenodd" clip-rule="evenodd" d="M544.759 403.812L550.034 419.335L641.61 388.837L640.555 386.07L544.759 403.812ZM584.971 468.247L592.246 475.18L646.351 419.746L644.98 418.554L584.971 468.247ZM635.883 522.393L645.323 525.243L670.683 450.368L668.957 449.915L635.883 522.393ZM720.732 522.461L735.94 519.557L718.348 455.848L714.553 456.437L720.732 522.461ZM810.678 475.755L818.529 466.781L767.439 420.431L765.109 421.555L810.678 475.755ZM852.397 413.307L849.616 400.634L771.932 395.66L772.001 399.729L852.397 413.307ZM847.945 347.159L847.972 335.02L765.013 364.258L765.849 365.929L847.945 347.159Z" fill="#ED1C24"/>
<path fill-rule="evenodd" clip-rule="evenodd" d="M573.421 196.697C583.902 196.697 592.397 205.013 592.397 215.247C592.397 225.496 583.902 233.812 573.421 233.812C562.954 233.812 554.459 225.496 554.459 215.247C554.459 205.013 562.954 196.697 573.421 196.697Z" fill="#FFF200"/>
<path d="M573.421 196.697C583.902 196.697 592.397 205.013 592.397 215.247C592.397 225.496 583.902 233.812 573.421 233.812C562.954 233.812 554.459 225.496 554.459 215.247C554.459 205.013 562.954 196.697 573.421 196.697Z" stroke="#231F20" stroke-width="2.432" stroke-miterlimit="22.926"/>
<path fill-rule="evenodd" clip-rule="evenodd" d="M573.421 196.697C583.902 196.697 592.397 205.013 592.397 215.247C592.397 225.496 583.902 233.812 573.421 233.812C562.954 233.812 554.459 225.496 554.459 215.247C554.459 205.013 562.954 196.697 573.421 196.697Z" fill="#FFF200"/>
<path d="M573.421 196.697C583.902 196.697 592.397 205.013 592.397 215.247C592.397 225.496 583.902 233.812 573.421 233.812C562.954 233.812 554.459 225.496 554.459 215.247C554.459 205.013 562.954 196.697 573.421 196.697Z" stroke="#231F20" stroke-width="2.432" stroke-miterlimit="22.926"/>
<path fill-rule="evenodd" clip-rule="evenodd" d="M756.698 154.923C762.466 190.846 747.422 223.139 723.117 227.044C698.798 230.935 674.424 204.972 668.656 169.048C662.902 133.111 677.931 100.832 702.237 96.9269C726.542 93.0222 750.93 118.985 756.698 154.923Z" fill="#99DEF9"/>
<path fill-rule="evenodd" clip-rule="evenodd" d="M835.039 74.0739C835.039 74.0739 745.079 89.3503 733.57 91.5835C733.57 91.5835 734.296 92.0768 735.488 93.0632C752.354 104.202 766.124 127.028 770.617 154.991C774.166 177.159 771.152 198.066 763.534 213.713L869.674 180.557C894.857 163.979 903.241 86.8978 835.039 74.0739Z" fill="#99DEF9"/>
<path fill-rule="evenodd" clip-rule="evenodd" d="M691.661 219.33C681.659 221.221 674.905 230.675 676.563 240.443C678.234 250.226 687.688 256.61 697.676 254.733C707.664 252.856 714.418 243.389 712.76 233.62C711.103 223.852 701.649 217.453 691.661 219.33Z" fill="#FFF200"/>
<path d="M691.661 219.33C681.659 221.221 674.905 230.675 676.563 240.443C678.234 250.226 687.688 256.61 697.676 254.733C707.664 252.856 714.418 243.389 712.76 233.62C711.103 223.852 701.649 217.453 691.661 219.33Z" stroke="#231F20" stroke-width="1.82933" stroke-miterlimit="22.926"/>
<path fill-rule="evenodd" clip-rule="evenodd" d="M695.154 181.064C684.837 183.009 677.863 192.764 679.576 202.848C681.302 212.932 691.044 219.536 701.36 217.59C711.677 215.645 718.651 205.89 716.938 195.806C715.226 185.722 705.457 179.118 695.154 181.064Z" fill="#ED1C24"/>
<path d="M695.154 181.064C684.837 183.009 677.863 192.764 679.576 202.848C681.302 212.932 691.044 219.536 701.36 217.59C711.677 215.645 718.651 205.89 716.938 195.806C715.226 185.722 705.457 179.118 695.154 181.064Z" stroke="#231F20" stroke-width="1.756" stroke-miterlimit="22.926"/>
<path fill-rule="evenodd" clip-rule="evenodd" d="M730.311 154.936C719.994 156.868 713.006 166.637 714.733 176.721C716.445 186.805 726.2 193.408 736.517 191.463C746.834 189.517 753.794 179.762 752.081 169.679C750.369 159.595 740.614 152.991 730.311 154.936Z" fill="white"/>
<path d="M730.311 154.936C719.994 156.868 713.006 166.637 714.733 176.721C716.445 186.805 726.2 193.408 736.517 191.463C746.834 189.517 753.794 179.762 752.081 169.679C750.369 159.595 740.614 152.991 730.311 154.936Z" stroke="#231F20" stroke-width="1.756" stroke-miterlimit="22.926"/>
<path fill-rule="evenodd" clip-rule="evenodd" d="M719.964 194.121C709.648 196.066 702.674 205.835 704.387 215.919C706.113 226.003 715.854 232.593 726.171 230.661C736.488 228.715 743.461 218.96 741.735 208.876C740.036 198.779 730.267 192.175 719.964 194.121Z" fill="#0994DC"/>
<path d="M719.964 194.121C709.648 196.066 702.674 205.835 704.387 215.919C706.113 226.003 715.854 232.593 726.171 230.661C736.488 228.715 743.461 218.96 741.735 208.876C740.036 198.779 730.267 192.175 719.964 194.121Z" stroke="#231F20" stroke-width="1.756" stroke-miterlimit="22.926"/>
<path fill-rule="evenodd" clip-rule="evenodd" d="M722.021 170.172C711.718 172.117 704.744 181.872 706.457 191.956C708.183 202.054 717.924 208.644 728.241 206.698C738.558 204.766 745.532 194.998 743.819 184.914C742.093 174.83 732.338 168.226 722.021 170.172Z" fill="#F68712"/>
<path d="M722.021 170.172C711.718 172.117 704.744 181.872 706.457 191.956C708.183 202.054 717.924 208.644 728.241 206.698C738.558 204.766 745.532 194.998 743.819 184.914C742.093 174.83 732.338 168.226 722.021 170.172Z" stroke="#231F20" stroke-width="1.756" stroke-miterlimit="22.926"/>
<path fill-rule="evenodd" clip-rule="evenodd" d="M608.305 232.017C618.772 232.017 627.28 240.32 627.28 250.568C627.28 260.816 618.772 269.119 608.305 269.119C597.824 269.119 589.329 260.816 589.329 250.568C589.329 240.32 597.824 232.017 608.305 232.017Z" fill="#ED1C24"/>
<path d="M608.305 232.017C618.772 232.017 627.28 240.32 627.28 250.568C627.28 260.816 618.772 269.119 608.305 269.119C597.824 269.119 589.329 260.816 589.329 250.568C589.329 240.32 597.824 232.017 608.305 232.017Z" stroke="#231F20" stroke-width="1.756" stroke-miterlimit="22.926"/>
<path fill-rule="evenodd" clip-rule="evenodd" d="M522.632 172.008C524.481 146.51 535.606 124.425 548.8 110.642L446.181 112.217C431.425 118.643 420.327 127.768 412.984 138.304C407.257 146.538 403.804 155.608 402.694 164.842C401.585 174.118 402.777 183.667 406.325 192.833C410.614 203.944 418.409 214.521 429.754 223.468L539.607 236.265C528.605 220.659 520.796 197.45 522.632 172.008Z" fill="#99D420"/>
<path fill-rule="evenodd" clip-rule="evenodd" d="M623.91 179.173C624.115 176.296 624.156 173.46 624.129 170.651L607.647 175.912L597.056 174.131L580.053 175.912L576.614 172.323L554.926 175.912L536.676 178.803C536.265 212.124 552.939 239.471 575.6 241.142C599.618 242.923 621.252 215.179 623.91 179.173Z" fill="#00A650"/>
<path fill-rule="evenodd" clip-rule="evenodd" d="M573.421 196.697C583.902 196.697 592.397 205.013 592.397 215.247C592.397 225.496 583.902 233.812 573.421 233.812C562.954 233.812 554.459 225.496 554.459 215.247C554.459 205.013 562.954 196.697 573.421 196.697Z" fill="#FFF200"/>
<path d="M573.421 196.697C583.902 196.697 592.397 205.013 592.397 215.247C592.397 225.496 583.902 233.812 573.421 233.812C562.954 233.812 554.459 225.496 554.459 215.247C554.459 205.013 562.954 196.697 573.421 196.697Z" stroke="#231F20" stroke-width="1.75733" stroke-miterlimit="22.926"/>
</g>
<defs>
<clipPath id="clip0_1_451">
<rect width="1287" height="893" fill="white"/>
</clipPath>
</defs>
</svg>
