<svg width="1627" height="544" viewBox="0 0 1627 544" fill="none" xmlns="http://www.w3.org/2000/svg">
<path fill-rule="evenodd" clip-rule="evenodd" d="M1363.11 148.36L1361.43 155.818C1352.42 153.362 1344.19 152.145 1336.75 152.145C1324.98 152.145 1318.5 154.778 1317.32 160.001C1316.84 162.125 1317.54 163.83 1319.47 165.113C1321.37 166.419 1325.16 167.747 1330.8 169.097L1338.68 171.022L1346.18 172.815C1357.82 175.669 1362.89 180.472 1361.34 187.288C1360.17 192.466 1356.12 196.605 1349.12 199.703C1342.15 202.779 1333.41 204.328 1322.88 204.328C1315.55 204.328 1306.35 203.31 1295.24 201.23L1297.16 192.732C1307.92 196.162 1317.12 197.888 1324.71 197.888C1331.18 197.888 1336.49 197.047 1340.69 195.388C1344.9 193.706 1347.33 191.471 1347.97 188.638C1348.46 186.491 1347.71 184.787 1345.72 183.526C1343.72 182.286 1339.39 180.826 1332.68 179.077L1324.45 176.997C1316.24 174.873 1310.71 172.704 1307.85 170.447C1305 168.211 1303.98 165.246 1304.82 161.528C1305.95 156.504 1309.42 152.587 1315.22 149.821C1321.04 147.077 1328.63 145.683 1338.01 145.683C1345.63 145.683 1354.01 146.59 1363.11 148.36ZM1231.15 182.53L1252.61 155.818L1262.06 182.53H1231.15ZM1203.26 202.978H1214.5L1225.79 188.992H1264.52L1269.32 202.978H1283.15L1262.42 147.055H1249.4L1203.26 202.978ZM1132.4 202.978L1133.86 196.516H1156.65L1166.41 153.495H1143.62L1145.08 147.055H1203.75L1202.29 153.495H1179.49L1169.73 196.516H1192.53L1191.07 202.978H1132.4ZM1116.16 201.23C1106.95 203.31 1098.52 204.328 1090.79 204.328C1077.34 204.328 1067.07 201.673 1060.06 196.339C1053.02 191.006 1050.49 183.99 1052.46 175.315C1054.46 166.485 1060.17 159.359 1069.59 153.893C1079.02 148.427 1090.35 145.683 1103.56 145.683C1111.07 145.683 1118.88 146.546 1127.04 148.228L1125.25 156.128C1117.11 153.472 1109.27 152.145 1101.7 152.145C1092.94 152.145 1085.22 154.269 1078.6 158.518C1071.98 162.767 1067.93 168.167 1066.45 174.718C1064.95 181.357 1066.94 186.779 1072.36 190.984C1077.78 195.211 1085.51 197.313 1095.57 197.313C1101.64 197.313 1109.05 196.273 1117.75 194.17L1116.16 201.23ZM1000.57 142.208L1017.41 132.537H1035.31L1011.12 142.208H1000.57ZM986.582 182.53L1008.05 155.818L1017.5 182.53H986.582ZM958.697 202.978H969.94L981.226 188.992H1019.95L1024.76 202.978H1038.59L1017.83 147.055H1004.84L958.697 202.978ZM882.591 202.978L895.271 147.055H910.918L921.739 181.49H921.872L948.008 147.055H964.319L951.638 202.978H940.993L951.881 154.977H951.748L924.439 191.183H913.485L902.42 155.995H902.287L891.642 202.978H882.591ZM826.777 173.213H833.66C840.675 173.213 846.451 172.195 850.988 170.159C855.569 168.123 858.247 165.379 859.022 161.926C859.752 158.695 858.734 156.482 855.901 155.287C853.091 154.092 847.536 153.495 839.259 153.495H831.248L826.777 173.213ZM807.037 202.978L819.696 147.055H843.42C853.29 147.055 860.017 147.586 863.603 148.648C871.282 150.905 874.491 154.867 873.207 160.532C872.322 164.405 870.175 167.68 866.745 170.27C863.315 172.859 858.026 175.293 850.855 177.528L874.336 202.978H858.557L837.068 179.719H825.317L820.05 202.978H807.037ZM742.018 182.53L763.484 155.818L772.934 182.53H742.018ZM714.133 202.978H725.375L736.662 188.992H775.39L780.193 202.978H794.024L773.266 147.055H760.253L714.133 202.978ZM648.162 202.978L660.821 147.055H721.149L719.688 153.495H672.373L668.013 172.77H708.379L706.919 179.21H666.553L661.175 202.978H648.162Z" fill="#C4161D"/>
<path fill-rule="evenodd" clip-rule="evenodd" d="M1500.95 406.062C1482.16 406.062 1467.36 400.552 1456.49 389.597C1445.65 378.598 1440.85 364.28 1442.06 346.686C1442.9 335.023 1445.87 324.445 1451 314.796C1456.12 305.191 1463.77 295.963 1473.93 287.133C1479.2 282.507 1485.82 278.856 1493.78 276.156C1501.79 273.478 1509.89 272.128 1518.19 272.128C1536.83 272.128 1551.48 277.55 1562.1 288.372C1572.72 299.172 1577.41 313.446 1576.17 331.172C1575.4 342.216 1572.72 352.462 1568.1 361.867C1563.47 371.295 1556.83 380.169 1548.07 388.49C1542.34 393.957 1535.21 398.272 1526.82 401.393C1518.44 404.513 1509.81 406.062 1500.95 406.062ZM1489.98 353.546C1489.51 360.186 1490.35 365.231 1492.57 368.728C1494.71 372.202 1498.12 373.973 1502.72 373.973C1509.03 373.973 1514.61 369.171 1519.61 359.61C1524.57 350.005 1527.55 338.055 1528.55 323.825C1529.01 317.297 1528.13 312.384 1525.83 308.976C1523.59 305.567 1520.05 303.841 1515.29 303.841C1509.21 303.841 1503.7 308.599 1498.78 318.071C1493.92 327.609 1490.95 339.427 1489.98 353.546ZM1430.91 218.152C1427.61 228.841 1423.54 236.631 1418.78 241.544C1413.98 246.479 1408.2 248.935 1401.39 248.935C1399.57 248.935 1397.87 248.825 1396.21 248.537C1394.55 248.249 1392.85 247.829 1391.21 247.254L1383.84 244.709C1382.58 244.222 1381.32 243.89 1380.12 243.646C1378.95 243.403 1377.75 243.292 1376.54 243.292C1373.57 243.292 1371.02 244.266 1368.83 246.28C1366.64 248.272 1365.01 251.149 1363.9 254.844H1349.67C1352.86 244.421 1356.93 236.542 1361.95 231.253C1366.97 225.964 1372.93 223.33 1379.81 223.33C1381.29 223.33 1382.98 223.507 1384.83 223.862C1386.69 224.238 1388.57 224.68 1390.5 225.256L1397.82 227.801C1399.15 228.266 1400.33 228.642 1401.39 228.885C1402.49 229.129 1403.49 229.239 1404.42 229.239C1407.34 229.239 1409.75 228.332 1411.77 226.584C1413.78 224.813 1415.51 222.025 1416.92 218.152H1430.91ZM1377.73 342.326C1366.2 342.924 1357.19 345.004 1350.73 348.656C1344.29 352.307 1340.86 357.198 1340.44 363.35C1340.17 367.046 1341.06 369.989 1343.07 372.18C1345.04 374.371 1347.88 375.5 1351.57 375.5C1358.06 375.5 1363.68 372.534 1368.39 366.581C1373.13 360.672 1376.2 352.595 1377.73 342.326ZM1368.81 380.413C1363.7 388.667 1357.59 394.864 1350.4 398.958C1343.23 403.03 1334.84 405.066 1325.17 405.066C1313.99 405.066 1305.16 401.68 1298.68 394.864C1292.17 388.048 1289.32 379.174 1290.07 368.307C1291.18 352.595 1299.45 340.733 1314.92 332.744C1330.39 324.688 1353.1 320.506 1383.02 320.085C1383.42 318.979 1383.75 317.872 1383.95 316.765C1384.13 315.703 1384.24 314.685 1384.3 313.734C1384.59 309.794 1383.59 306.829 1381.29 304.837C1379.01 302.823 1375.5 301.827 1370.71 301.827C1365.71 301.827 1361.29 303.067 1357.48 305.567C1353.65 308.024 1350.69 311.565 1348.56 316.124L1308.71 308.068C1314.46 296.538 1323.29 287.752 1335.22 281.689C1347.17 275.647 1361.57 272.615 1378.5 272.615C1396.25 272.615 1409.71 276.023 1418.89 282.795C1428.06 289.567 1432.17 299.172 1431.31 311.675C1431.2 313.114 1431 314.796 1430.71 316.699C1430.42 318.536 1429.94 320.992 1429.27 324.069L1417.41 372.734C1416.48 376.806 1415.75 380.28 1415.29 383.113C1414.75 385.99 1414.42 388.468 1414.27 390.549C1414.13 392.474 1414.09 394.399 1414.11 396.369C1414.13 398.361 1414.22 400.308 1414.38 402.322H1366.84C1366.69 401.061 1366.62 399.733 1366.66 398.471C1366.73 397.21 1366.84 395.528 1367 393.426C1367.15 391.168 1367.37 388.955 1367.68 386.831C1367.99 384.64 1368.39 382.515 1368.81 380.413ZM1208.03 406.062C1216.89 406.062 1225.49 404.513 1233.88 401.393C1242.29 398.272 1249.4 393.957 1255.15 388.49C1263.91 380.169 1270.55 371.295 1275.18 361.867C1279.8 352.462 1282.48 342.216 1283.26 331.172C1284.49 313.446 1279.8 299.172 1269.18 288.372C1258.56 277.55 1243.91 272.128 1225.27 272.128C1216.97 272.128 1208.85 273.478 1200.86 276.156C1192.9 278.856 1186.26 282.507 1181.01 287.133C1170.85 295.963 1163.2 305.191 1158.08 314.796C1152.95 324.445 1149.96 335.023 1149.14 346.686C1147.93 364.28 1152.73 378.598 1163.57 389.597C1174.44 400.552 1189.24 406.062 1208.03 406.062ZM1197.03 353.546C1196.57 360.186 1197.43 365.231 1199.62 368.728C1201.79 372.202 1205.2 373.973 1209.8 373.973C1216.09 373.973 1221.69 369.171 1226.69 359.61C1231.65 350.005 1234.63 338.055 1235.63 323.825C1236.1 317.297 1235.19 312.384 1232.91 308.976C1230.65 305.567 1227.13 303.841 1222.37 303.841C1216.29 303.841 1210.78 308.599 1205.86 318.071C1201 327.609 1198.03 339.427 1197.03 353.546ZM1019.15 400.884L1028.53 362.399C1032.85 363.306 1036.46 363.948 1039.27 364.324C1042.08 364.744 1044.64 364.944 1046.92 364.944C1055.93 364.944 1062.61 362.775 1067.04 358.459C1071.44 354.122 1075.32 345.115 1078.59 331.416L1102.63 231.497H1154.9L1127.3 344.008C1121.92 365.807 1113.45 381.564 1101.9 391.301C1090.32 400.972 1074.28 405.819 1053.67 405.819C1047.99 405.819 1042.23 405.398 1036.5 404.535C1030.77 403.716 1024.97 402.499 1019.15 400.884ZM874.483 406.062C855.672 406.062 840.866 400.552 830.022 389.597C819.156 378.598 814.354 364.28 815.593 346.686C816.412 335.023 819.4 324.445 824.512 314.796C829.646 305.191 837.303 295.963 847.461 287.133C852.706 282.507 859.323 278.856 867.29 276.156C875.301 273.478 883.401 272.128 891.7 272.128C910.356 272.128 924.984 277.55 935.607 288.372C946.252 299.172 950.921 313.446 949.682 331.172C948.93 342.216 946.23 352.462 941.604 361.867C936.979 371.295 930.34 380.169 921.598 388.49C915.844 393.957 908.718 398.272 900.331 401.393C891.944 404.513 883.335 406.062 874.483 406.062ZM863.484 353.546C863.019 360.186 863.86 365.231 866.073 368.728C868.22 372.202 871.628 373.973 876.231 373.973C882.538 373.973 888.115 369.171 893.116 359.61C898.074 350.005 901.083 338.055 902.079 323.825C902.522 317.297 901.637 312.384 899.357 308.976C897.1 305.567 893.581 303.841 888.801 303.841C882.715 303.841 877.205 308.599 872.292 318.071C867.423 327.609 864.48 339.427 863.484 353.546ZM804.439 218.152C801.12 228.841 797.048 236.631 792.29 241.544C787.488 246.479 781.711 248.935 774.895 248.935C773.103 248.935 771.377 248.825 769.717 248.537C768.057 248.249 766.375 247.829 764.715 247.254L757.368 244.709C756.084 244.222 754.823 243.89 753.628 243.646C752.455 243.403 751.26 243.292 750.065 243.292C747.077 243.292 744.532 244.266 742.341 246.28C740.172 248.272 738.513 251.149 737.428 254.844H723.198C726.363 244.421 730.435 236.542 735.459 231.253C740.482 225.964 746.435 223.33 753.34 223.33C754.823 223.33 756.483 223.507 758.342 223.862C760.201 224.238 762.104 224.68 764.029 225.256L771.332 227.801C772.66 228.266 773.833 228.642 774.917 228.885C776.002 229.129 776.998 229.239 777.927 229.239C780.848 229.239 783.283 228.332 785.297 226.584C787.288 224.813 789.015 222.025 790.453 218.152H804.439ZM751.26 342.326C749.733 352.595 746.635 360.672 741.899 366.581C737.185 372.534 731.564 375.5 725.079 375.5C721.384 375.5 718.551 374.371 716.581 372.18C714.567 369.989 713.682 367.046 713.948 363.35C714.368 357.198 717.821 352.307 724.239 348.656C730.701 345.004 739.708 342.924 751.26 342.326ZM742.341 380.413C741.899 382.515 741.522 384.64 741.213 386.831C740.903 388.955 740.659 391.168 740.504 393.426C740.35 395.528 740.239 397.21 740.195 398.471C740.15 399.733 740.217 401.061 740.35 402.322H787.886C787.753 400.308 787.642 398.361 787.62 396.369C787.598 394.399 787.665 392.474 787.797 390.549C787.93 388.468 788.262 385.99 788.793 383.113C789.28 380.28 789.988 376.806 790.918 372.734L802.78 324.069C803.444 320.992 803.93 318.536 804.218 316.699C804.506 314.796 804.705 313.114 804.816 311.675C805.701 299.172 801.563 289.567 792.423 282.795C783.216 276.023 769.761 272.615 752.012 272.615C735.082 272.615 720.698 275.647 708.725 281.689C696.797 287.752 687.967 296.538 682.235 308.068L722.07 316.124C724.194 311.565 727.16 308.024 730.988 305.567C734.795 303.067 739.221 301.827 744.222 301.827C749.003 301.827 752.543 302.823 754.801 304.837C757.102 306.829 758.098 309.794 757.811 313.734C757.744 314.685 757.656 315.703 757.456 316.765C757.257 317.872 756.925 318.979 756.527 320.085C726.606 320.506 703.901 324.688 688.454 332.744C672.962 340.733 664.685 352.595 663.579 368.307C662.826 379.174 665.681 388.048 672.188 394.864C678.672 401.68 687.502 405.066 698.678 405.066C708.349 405.066 716.736 403.03 723.929 398.958C731.099 394.864 737.229 388.667 742.341 380.413ZM548.478 347.394C550.426 353.701 554.143 358.548 559.565 361.867C564.921 365.187 571.737 366.869 579.97 366.869C586.786 366.869 592.23 365.608 596.346 363.107C600.396 360.562 602.609 357.154 602.919 352.794C603.34 346.73 595.992 341.175 580.833 336.218C576.562 334.824 573.22 333.717 570.852 332.81C554.188 326.901 542.326 319.93 535.2 311.852C528.118 303.797 524.975 293.838 525.794 281.976C526.879 266.573 534.226 253.738 547.814 243.447C561.402 233.156 578.022 228 597.674 228C615.379 228 630.295 231.829 642.511 239.508C654.682 247.143 662.494 257.522 665.858 270.557L622.106 281.976C620.756 276.422 617.769 272.172 613.099 269.096C608.474 266.02 602.72 264.449 595.837 264.449C590.26 264.449 585.679 265.644 582.116 267.99C578.553 270.358 576.65 273.478 576.385 277.285C576.008 282.662 582.426 287.752 595.638 292.555C597.298 293.219 598.604 293.661 599.489 293.993C620.712 301.761 635.252 309.75 643.064 317.916C650.876 326.082 654.328 336.417 653.443 348.943C652.27 365.519 644.436 379.151 629.852 389.818C615.29 400.485 596.966 405.819 574.924 405.819C555.117 405.819 538.674 401.547 525.595 393.049C512.516 384.551 504.283 372.778 500.897 357.729L548.478 347.394Z" fill="#2E3192"/>
<path fill-rule="evenodd" clip-rule="evenodd" d="M289.539 58.8709C397.491 84.5644 477.05 155.736 467.224 217.812C457.398 279.888 361.883 309.41 253.931 283.739C146 258.045 66.4187 186.874 76.2447 124.798C86.0706 62.7216 181.586 33.1995 289.539 58.8709Z" fill="#99D420"/>
<path fill-rule="evenodd" clip-rule="evenodd" d="M213.843 104.933C213.534 104.911 213.246 104.955 212.936 104.933V104.845L95.9542 106.438C95.9542 106.438 50.6531 123.833 50.6531 161.454C49.6793 202.706 81.0383 220.344 81.0383 220.344L201.849 234.507L201.871 234.441C202.645 234.551 203.442 234.729 204.261 234.773C229.888 236.676 252.815 209.146 255.449 173.294C258.104 137.443 239.471 106.836 213.843 104.933Z" fill="#231F20"/>
<path fill-rule="evenodd" clip-rule="evenodd" d="M245.113 172.913C242.9 202.811 224.93 225.893 204.968 224.41C185.006 222.928 170.621 197.478 172.812 167.557C175.025 137.659 193.017 114.599 212.957 116.059C232.941 117.542 247.326 142.992 245.113 172.913Z" fill="#99D420"/>
<path fill-rule="evenodd" clip-rule="evenodd" d="M472.508 117.227C460.38 79.8266 420.678 74.6038 420.678 74.6038L308.233 93.8352C282.717 97.9294 266.694 130.262 272.448 166.069C278.18 201.854 303.519 227.548 329.036 223.454C330.364 223.254 331.625 222.922 332.909 222.568L332.931 222.701L454.958 183.397C454.958 183.397 484.613 154.65 472.508 117.227Z" fill="#231F20"/>
<path fill-rule="evenodd" clip-rule="evenodd" d="M310.801 318.484C294.004 321.671 282.651 337.56 285.439 353.981C288.228 370.424 304.117 381.18 320.914 378.015C337.734 374.828 349.087 358.938 346.298 342.518C343.51 326.075 327.598 315.319 310.801 318.484Z" fill="#00ADEF"/>
<path d="M310.801 318.484C294.004 321.671 282.651 337.56 285.439 353.981C288.228 370.424 304.117 381.18 320.914 378.015C337.734 374.828 349.087 358.938 346.298 342.518C343.51 326.075 327.598 315.319 310.801 318.484Z" stroke="#231F20" stroke-width="9.82927" stroke-miterlimit="22.926"/>
<path fill-rule="evenodd" clip-rule="evenodd" d="M301.348 255.173C292.761 256.789 286.963 264.888 288.401 273.276C289.818 281.641 297.917 287.152 306.504 285.514C315.068 283.899 320.867 275.799 319.428 267.411C318.012 259.046 309.912 253.558 301.348 255.173Z" fill="#ED1C24"/>
<path d="M301.348 255.173C292.761 256.789 286.963 264.888 288.401 273.276C289.818 281.641 297.917 287.152 306.504 285.514C315.068 283.899 320.867 275.799 319.428 267.411C318.012 259.046 309.912 253.558 301.348 255.173Z" stroke="#231F20" stroke-width="9.82927" stroke-miterlimit="22.926"/>
<path fill-rule="evenodd" clip-rule="evenodd" d="M280.875 240.881C272.31 242.496 266.512 250.596 267.951 258.984C269.367 267.371 277.467 272.86 286.053 271.244C294.618 269.628 300.416 261.529 298.977 253.141C297.561 244.754 289.461 239.265 280.875 240.881Z" fill="#FFF200"/>
<path d="M280.875 240.881C272.31 242.496 266.512 250.596 267.951 258.984C269.367 267.371 277.467 272.86 286.053 271.244C294.618 269.628 300.416 261.529 298.977 253.141C297.561 244.754 289.461 239.265 280.875 240.881Z" stroke="#231F20" stroke-width="9.82927" stroke-miterlimit="22.926"/>
<path fill-rule="evenodd" clip-rule="evenodd" d="M314.98 346.078C308.584 349.863 301.193 349.509 298.471 345.237C295.749 340.988 298.714 334.438 305.11 330.653C311.483 326.847 318.875 327.245 321.597 331.494C324.341 335.743 321.354 342.294 314.98 346.078ZM257.264 268.29C243.344 270.923 233.916 284.091 236.24 297.701C238.541 311.311 251.709 320.23 265.629 317.596C279.571 314.985 288.977 301.817 286.653 288.185C284.351 274.575 271.184 265.678 257.264 268.29Z" fill="white"/>
<path d="M257.264 268.29C243.344 270.923 233.916 284.091 236.24 297.701C238.541 311.311 251.709 320.23 265.629 317.596C279.571 314.985 288.977 301.817 286.653 288.185C284.351 274.575 271.184 265.678 257.264 268.29Z" stroke="#231F20" stroke-width="9.82927" stroke-miterlimit="22.926"/>
<path fill-rule="evenodd" clip-rule="evenodd" d="M179.345 359.581L183.727 372.484L259.834 347.144L258.949 344.843L179.345 359.581ZM212.762 413.137L218.804 418.891L263.773 372.838L262.644 371.842L212.762 413.137ZM255.076 458.129L262.91 460.497L283.978 398.266L282.562 397.889L255.076 458.129ZM325.584 458.173L338.22 455.761L323.614 402.824L320.449 403.311L325.584 458.173ZM400.34 419.378L406.869 411.92L364.401 373.391L362.453 374.32L400.34 419.378ZM434.997 367.482L432.695 356.948L368.141 352.81L368.185 356.195L434.997 367.482ZM431.301 312.51L431.323 302.418L362.387 326.718L363.073 328.09L431.301 312.51Z" fill="#ED1C24"/>
<path fill-rule="evenodd" clip-rule="evenodd" d="M203.161 187.455C211.881 187.455 218.94 194.381 218.94 202.902C218.94 211.4 211.881 218.304 203.161 218.304C194.464 218.304 187.404 211.4 187.404 202.902C187.404 194.381 194.464 187.455 203.161 187.455Z" fill="#FFF200"/>
<path d="M203.161 187.455C211.881 187.455 218.94 194.381 218.94 202.902C218.94 211.4 211.881 218.304 203.161 218.304C194.464 218.304 187.404 211.4 187.404 202.902C187.404 194.381 194.464 187.455 203.161 187.455Z" stroke="#231F20" stroke-width="13.5986" stroke-miterlimit="22.926"/>
<path fill-rule="evenodd" clip-rule="evenodd" d="M203.161 187.455C211.881 187.455 218.94 194.381 218.94 202.902C218.94 211.4 211.881 218.304 203.161 218.304C194.464 218.304 187.404 211.4 187.404 202.902C187.404 194.381 194.464 187.455 203.161 187.455Z" fill="#FFF200"/>
<path d="M203.161 187.455C211.881 187.455 218.94 194.381 218.94 202.902C218.94 211.4 211.881 218.304 203.161 218.304C194.464 218.304 187.404 211.4 187.404 202.902C187.404 194.381 194.464 187.455 203.161 187.455Z" stroke="#231F20" stroke-width="13.5986" stroke-miterlimit="22.926"/>
<path fill-rule="evenodd" clip-rule="evenodd" d="M355.452 152.753C360.254 182.607 347.751 209.43 327.568 212.683C307.362 215.914 287.091 194.337 282.289 164.483C277.508 134.629 290.012 107.784 310.195 104.553C330.4 101.3 350.672 122.877 355.452 152.753Z" fill="#99DEF9"/>
<path fill-rule="evenodd" clip-rule="evenodd" d="M420.568 85.5724C420.568 85.5724 345.811 98.2532 336.251 100.112C336.251 100.112 336.849 100.533 337.844 101.352C351.853 110.602 363.317 129.59 367.035 152.805C369.978 171.24 367.499 188.612 361.17 201.603L449.36 174.05C470.295 160.285 477.267 96.2394 420.568 85.5724Z" fill="#99DEF9"/>
<path fill-rule="evenodd" clip-rule="evenodd" d="M301.419 206.291C293.12 207.84 287.499 215.696 288.893 223.818C290.266 231.94 298.122 237.273 306.421 235.702C314.742 234.131 320.341 226.274 318.969 218.153C317.575 210.031 309.718 204.719 301.419 206.291Z" fill="#FFF200"/>
<path d="M301.419 206.291C293.12 207.84 287.499 215.696 288.893 223.818C290.266 231.94 298.122 237.273 306.421 235.702C314.742 234.131 320.341 226.274 318.969 218.153C317.575 210.031 309.718 204.719 301.419 206.291Z" stroke="#231F20" stroke-width="10.2352" stroke-miterlimit="22.926"/>
<path fill-rule="evenodd" clip-rule="evenodd" d="M304.32 174.463C295.756 176.078 289.957 184.2 291.396 192.566C292.812 200.953 300.912 206.442 309.499 204.826C318.063 203.21 323.861 195.111 322.423 186.723C321.006 178.358 312.907 172.847 304.32 174.463Z" fill="#ED1C24"/>
<path d="M304.32 174.463C295.756 176.078 289.957 184.2 291.396 192.566C292.812 200.953 300.912 206.442 309.499 204.826C318.063 203.21 323.861 195.111 322.423 186.723C321.006 178.358 312.907 172.847 304.32 174.463Z" stroke="#231F20" stroke-width="9.82927" stroke-miterlimit="22.926"/>
<path fill-rule="evenodd" clip-rule="evenodd" d="M333.52 152.749C324.956 154.365 319.158 162.465 320.596 170.852C322.012 179.24 330.112 184.728 338.699 183.113C347.263 181.497 353.061 173.397 351.623 165.01C350.207 156.622 342.107 151.134 333.52 152.749Z" fill="white"/>
<path d="M333.52 152.749C324.956 154.365 319.158 162.465 320.596 170.852C322.012 179.24 330.112 184.728 338.699 183.113C347.263 181.497 353.061 173.397 351.623 165.01C350.207 156.622 342.107 151.134 333.52 152.749Z" stroke="#231F20" stroke-width="9.82927" stroke-miterlimit="22.926"/>
<path fill-rule="evenodd" clip-rule="evenodd" d="M324.946 185.326C316.381 186.942 310.583 195.042 312 203.429C313.438 211.816 321.538 217.305 330.102 215.689C338.689 214.074 344.465 205.974 343.049 197.587C341.632 189.199 333.51 183.711 324.946 185.326Z" fill="#0994DC"/>
<path d="M324.946 185.326C316.381 186.942 310.583 195.042 312 203.429C313.438 211.816 321.538 217.305 330.102 215.689C338.689 214.074 344.465 205.974 343.049 197.587C341.632 189.199 333.51 183.711 324.946 185.326Z" stroke="#231F20" stroke-width="9.82927" stroke-miterlimit="22.926"/>
<path fill-rule="evenodd" clip-rule="evenodd" d="M326.667 165.435C318.08 167.028 312.304 175.15 313.72 183.537C315.137 191.903 323.259 197.391 331.823 195.776C340.388 194.16 346.186 186.06 344.77 177.673C343.331 169.285 335.231 163.797 326.667 165.435Z" fill="#F68712"/>
<path d="M326.667 165.435C318.08 167.028 312.304 175.15 313.72 183.537C315.137 191.903 323.259 197.391 331.823 195.776C340.388 194.16 346.186 186.06 344.77 177.673C343.331 169.285 335.231 163.797 326.667 165.435Z" stroke="#231F20" stroke-width="9.82927" stroke-miterlimit="22.926"/>
<path fill-rule="evenodd" clip-rule="evenodd" d="M232.15 216.825C240.847 216.825 247.907 223.729 247.907 232.227C247.907 240.748 240.847 247.652 232.15 247.652C223.453 247.652 216.371 240.748 216.371 232.227C216.371 223.729 223.453 216.825 232.15 216.825Z" fill="#ED1C24"/>
<path d="M232.15 216.825C240.847 216.825 247.907 223.729 247.907 232.227C247.907 240.748 240.847 247.652 232.15 247.652C223.453 247.652 216.371 240.748 216.371 232.227C216.371 223.729 223.453 216.825 232.15 216.825Z" stroke="#231F20" stroke-width="9.82927" stroke-miterlimit="22.926"/>
<path fill-rule="evenodd" clip-rule="evenodd" d="M160.953 166.94C162.502 145.761 171.753 127.415 182.685 115.951L97.4163 117.257C85.156 122.59 75.9275 130.181 69.8416 138.945C65.0836 145.783 62.2066 153.308 61.2771 160.987C60.3477 168.71 61.3435 176.633 64.2869 184.246C67.872 193.497 74.3341 202.282 83.7617 209.718L175.072 220.341C165.91 207.372 159.426 188.097 160.953 166.94Z" fill="#99D420"/>
<path fill-rule="evenodd" clip-rule="evenodd" d="M245.119 172.918C245.296 170.505 245.318 168.16 245.296 165.836L231.597 170.196L222.811 168.713L208.67 170.196L205.815 167.208L187.801 170.196L172.619 172.586C172.287 200.293 186.141 223.021 204.974 224.415C224.936 225.898 242.906 202.816 245.119 172.918Z" fill="#00A650"/>
<path fill-rule="evenodd" clip-rule="evenodd" d="M203.161 187.455C211.881 187.455 218.94 194.381 218.94 202.902C218.94 211.4 211.881 218.304 203.161 218.304C194.464 218.304 187.404 211.4 187.404 202.902C187.404 194.381 194.464 187.455 203.161 187.455Z" fill="#FFF200"/>
<path d="M203.161 187.455C211.881 187.455 218.94 194.381 218.94 202.902C218.94 211.4 211.881 218.304 203.161 218.304C194.464 218.304 187.404 211.4 187.404 202.902C187.404 194.381 194.464 187.455 203.161 187.455Z" stroke="#231F20" stroke-width="9.82927" stroke-miterlimit="22.926"/>
<path d="M500.103 494.308C503.467 494.308 507.539 493.069 510.637 491.21C513.559 489.528 516.303 486.961 518.516 483.862L520.286 481.118L515.418 477.843L513.559 480.322C509.929 485.544 505.68 488.2 500.634 488.2C491.694 488.2 485.94 479.613 486.914 467.751C487.976 455.801 495.323 447.214 504.264 447.214C509.31 447.214 513.028 449.958 515.772 455.093L517.1 457.66L522.676 454.385L521.26 451.552C519.578 448.542 517.365 445.975 514.709 444.205C511.877 442.346 508.159 441.018 504.795 441.018C501.874 441.018 498.333 441.992 495.5 443.408C492.933 444.824 490.543 446.683 488.507 449.073C484.169 453.942 481.071 460.935 480.451 467.751C479.92 474.568 481.779 481.472 485.232 486.341C486.914 488.731 488.95 490.679 491.34 492.006C493.818 493.423 497.182 494.308 500.103 494.308Z" fill="#2E3192"/>
<path d="M537.753 494.303C541.471 494.303 545.808 492.533 548.641 489.7C551.474 486.956 553.51 482.618 553.864 478.723L555.988 454.291H549.615L547.49 478.723C546.959 484.477 543.33 488.195 538.284 488.195C533.238 488.195 530.317 484.477 530.848 478.723L532.973 454.291H526.511L524.386 478.723C524.032 482.618 525.448 486.956 527.75 489.7C530.051 492.533 534.035 494.303 537.753 494.303Z" fill="#2E3192"/>
<path d="M562.324 494.301H567.724L571.265 454.2H564.803L561.262 494.301H562.324ZM569.052 442.781C567.724 442.781 565.6 444.551 565.511 445.791L565.423 446.676C565.334 447.915 567.105 449.686 568.432 449.686C569.583 449.686 571.796 447.915 571.885 446.676L571.973 445.791C572.062 444.551 570.203 442.781 569.052 442.781Z" fill="#2E3192"/>
<path d="M579.693 488.641C582.88 492.182 588.102 494.306 593.06 494.306H603.063L607.754 441.016H601.381L600.23 454.206C600.23 454.206 600.495 454.383 600.141 454.649C599.964 454.914 600.053 454.914 599.168 454.914H596.512C591.555 454.914 585.978 457.127 582.083 460.757C578.276 464.209 575.621 469.609 575.178 474.654C574.736 479.7 576.417 485.012 579.693 488.641ZM599.699 460.048L597.22 488.198H593.591C585.712 488.198 580.844 482.533 581.552 474.654C582.171 466.688 588.102 461.022 595.981 461.022H598.548C599.345 461.022 599.964 460.934 599.61 461.022L599.699 460.048Z" fill="#2E3192"/>
<path d="M624.525 494.392C628.066 494.392 632.315 492.975 635.059 490.939C637.98 488.726 640.016 485.185 640.282 482.087L641.698 466.596C641.963 463.409 640.547 459.868 638.069 457.743C635.767 455.619 632.049 454.291 628.597 454.291C624.082 454.291 618.948 456.504 616.204 459.779L614.168 462.347L618.771 466.065L620.807 463.586C622.666 461.461 624.879 460.399 628.066 460.399C633.023 460.399 635.59 462.878 635.324 466.596L635.059 468.72C635.059 469.428 635.059 469.428 634.882 469.605C634.528 469.871 634.351 469.694 634.351 469.694H626.649C623.02 469.694 618.859 471.022 616.115 473.146C613.282 475.271 611.158 478.812 610.804 482.087C610.538 485.185 612.132 488.726 614.61 490.939C617 492.975 620.895 494.392 624.525 494.392ZM633.819 475.802C634.085 475.802 634.705 475.802 634.439 475.89L633.908 482.087C633.819 483.769 633.2 484.92 631.341 486.248C629.393 487.664 627.623 488.195 625.056 488.195C622.4 488.195 620.807 487.664 619.036 486.248C617.62 484.92 617.089 483.769 617.177 482.087C617.354 480.228 618.063 479.166 619.833 477.838C621.78 476.422 623.551 475.802 626.207 475.802H633.819Z" fill="#2E3192"/>
<path d="M653.3 493.598L655.336 469.875C655.867 464.121 659.408 460.403 664.542 460.403H666.136L666.667 454.206H665.074C661.356 454.206 657.018 456.065 654.097 458.898C651.353 461.642 649.228 465.98 648.874 469.875L646.75 494.307H653.212L653.3 493.598Z" fill="#2E3192"/>
<path d="M692.744 488.641C695.93 492.182 701.153 494.306 706.11 494.306H716.113L720.805 441.016H714.431L713.281 454.206C713.281 454.206 713.546 454.383 713.192 454.649C713.015 454.914 713.104 454.914 712.218 454.914H709.563C704.606 454.914 699.029 457.127 695.134 460.757C691.327 464.209 688.672 469.609 688.229 474.654C687.786 479.7 689.468 485.012 692.744 488.641ZM712.75 460.048L710.271 488.198H706.642C698.763 488.198 693.894 482.533 694.603 474.654C695.222 466.688 701.153 461.022 709.032 461.022H711.599C712.395 461.022 713.015 460.934 712.661 461.022L712.75 460.048Z" fill="#2E3192"/>
<path d="M737.588 494.392C741.129 494.392 745.378 492.975 748.122 490.939C751.043 488.726 753.079 485.185 753.345 482.087L754.761 466.596C755.026 463.409 753.61 459.868 751.132 457.743C748.83 455.619 745.112 454.291 741.66 454.291C737.145 454.291 732.011 456.504 729.267 459.779L727.231 462.347L731.834 466.065L733.87 463.586C735.729 461.461 737.942 460.399 741.129 460.399C746.086 460.399 748.653 462.878 748.387 466.596L748.122 468.72C748.122 469.428 748.122 469.428 747.945 469.605C747.591 469.871 747.414 469.694 747.414 469.694H739.712C736.083 469.694 731.922 471.022 729.178 473.146C726.345 475.271 724.221 478.812 723.867 482.087C723.601 485.185 725.195 488.726 727.673 490.939C730.063 492.975 733.958 494.392 737.588 494.392ZM746.882 475.802C747.148 475.802 747.768 475.802 747.502 475.89L746.971 482.087C746.882 483.769 746.263 484.92 744.404 486.248C742.456 487.664 740.686 488.195 738.119 488.195C735.463 488.195 733.87 487.664 732.099 486.248C730.683 484.92 730.152 483.769 730.24 482.087C730.417 480.228 731.126 479.166 732.896 477.838C734.843 476.422 736.614 475.802 739.27 475.802H746.882Z" fill="#2E3192"/>
<path d="M791.951 494.302C795.845 494.302 800.095 493.062 802.662 490.938C805.052 488.902 806.822 485.449 807.088 482.263C807.353 478.987 805.848 475.712 803.104 473.942C800.891 472.525 797.439 471.552 794.606 470.843C792.216 470.224 790.269 469.781 788.675 468.719C787.082 467.745 786.816 467.037 786.993 465.266C787.259 461.549 789.029 460.398 794.96 460.398C797.616 460.398 799.386 461.46 800.714 463.673L802.396 466.152L807.707 462.257L806.026 459.778C803.724 456.503 799.563 454.29 795.491 454.29C791.242 454.29 787.082 455.441 784.78 457.388C782.479 459.158 780.885 462.257 780.62 465.266C780.354 468.63 781.859 471.906 784.692 473.676C786.816 475.092 790.357 476.155 793.013 476.863C795.58 477.483 797.439 477.925 799.032 478.987C800.537 479.961 800.891 480.492 800.714 482.263C800.36 486.423 797.97 488.194 792.482 488.194C786.197 488.194 785.488 486.866 784.161 485.007L782.567 482.528L777.256 486.335L779.026 488.902C779.912 490.053 781.77 491.912 783.984 492.974C786.02 493.948 788.498 494.302 791.951 494.302Z" fill="#2E3192"/>
<path d="M826.062 494.302C829.78 494.302 834.118 492.531 836.951 489.699C839.783 486.954 841.819 482.617 842.173 478.722L844.298 454.29H837.924L835.8 478.722C835.269 484.476 831.639 488.194 826.594 488.194C821.548 488.194 818.627 484.476 819.158 478.722L821.282 454.29H814.82L812.696 478.722C812.342 482.617 813.758 486.954 816.059 489.699C818.361 492.531 822.345 494.302 826.062 494.302Z" fill="#2E3192"/>
<path d="M861.28 494.392C864.821 494.392 869.07 492.975 871.814 490.939C874.735 488.726 876.771 485.185 877.037 482.087L878.453 466.596C878.719 463.409 877.303 459.868 874.824 457.743C872.522 455.619 868.804 454.291 865.352 454.291C860.837 454.291 855.703 456.504 852.959 459.779L850.923 462.347L855.526 466.065L857.562 463.586C859.421 461.461 861.634 460.399 864.821 460.399C869.778 460.399 872.345 462.878 872.08 466.596L871.814 468.72C871.814 469.428 871.814 469.428 871.637 469.605C871.283 469.871 871.106 469.694 871.106 469.694H863.405C859.775 469.694 855.615 471.022 852.87 473.146C850.038 475.271 847.913 478.812 847.559 482.087C847.294 485.185 848.887 488.726 851.366 490.939C853.756 492.975 857.651 494.392 861.28 494.392ZM870.575 475.802C870.84 475.802 871.46 475.802 871.194 475.89L870.663 482.087C870.575 483.769 869.955 484.92 868.096 486.248C866.149 487.664 864.378 488.195 861.811 488.195C859.155 488.195 857.562 487.664 855.792 486.248C854.375 484.92 853.844 483.769 853.933 482.087C854.11 480.228 854.818 479.166 856.588 477.838C858.536 476.422 860.306 475.802 862.962 475.802H870.575Z" fill="#2E3192"/>
<path d="M915.645 494.303C919.54 494.303 923.789 493.064 926.357 490.939C928.747 488.903 930.517 485.451 930.783 482.264C931.048 478.989 929.543 475.713 926.799 473.943C924.586 472.527 921.134 471.553 918.301 470.845C915.911 470.225 913.963 469.782 912.37 468.72C910.777 467.746 910.511 467.038 910.688 465.268C910.954 461.55 912.724 460.399 918.655 460.399C921.311 460.399 923.081 461.461 924.409 463.674L926.091 466.153L931.402 462.258L929.72 459.779C927.419 456.504 923.258 454.291 919.186 454.291C914.937 454.291 910.777 455.442 908.475 457.389C906.173 459.16 904.58 462.258 904.315 465.268C904.049 468.632 905.554 471.907 908.387 473.677C910.511 475.094 914.052 476.156 916.708 476.864C919.275 477.484 921.134 477.926 922.727 478.989C924.232 479.962 924.586 480.494 924.409 482.264C924.055 486.425 921.665 488.195 916.176 488.195C909.891 488.195 909.183 486.867 907.855 485.008L906.262 482.53L900.951 486.336L902.721 488.903C903.606 490.054 905.465 491.913 907.678 492.975C909.714 493.949 912.193 494.303 915.645 494.303Z" fill="#2E3192"/>
<path d="M949.836 494.392C953.377 494.392 957.626 492.975 960.37 490.939C963.292 488.726 965.328 485.185 965.593 482.087L967.009 466.596C967.275 463.409 965.859 459.868 963.38 457.743C961.078 455.619 957.361 454.291 953.908 454.291C949.394 454.291 944.259 456.504 941.515 459.779L939.479 462.347L944.082 466.065L946.118 463.586C947.977 461.461 950.19 460.399 953.377 460.399C958.334 460.399 960.901 462.878 960.636 466.596L960.37 468.72C960.37 469.428 960.37 469.428 960.193 469.605C959.839 469.871 959.662 469.694 959.662 469.694H951.961C948.331 469.694 944.171 471.022 941.427 473.146C938.594 475.271 936.469 478.812 936.115 482.087C935.85 485.185 937.443 488.726 939.922 490.939C942.312 492.975 946.207 494.392 949.836 494.392ZM959.131 475.802C959.397 475.802 960.016 475.802 959.751 475.89L959.219 482.087C959.131 483.769 958.511 484.92 956.652 486.248C954.705 487.664 952.934 488.195 950.367 488.195C947.712 488.195 946.118 487.664 944.348 486.248C942.931 484.92 942.4 483.769 942.489 482.087C942.666 480.228 943.374 479.166 945.144 477.838C947.092 476.422 948.862 475.802 951.518 475.802H959.131Z" fill="#2E3192"/>
<path d="M970.168 492.885C996.371 415.429 983.712 451.103 983.712 451.103H982.384L985.306 455.352L998.938 445.349L995.574 440.392L982.738 449.687L968.132 492.885H970.168ZM998.141 455.086L996.105 478.722C995.574 484.476 991.945 488.194 986.899 488.194C981.853 488.194 978.932 484.476 979.463 478.722L981.588 454.29H975.126L973.001 478.722C972.647 482.617 974.063 486.954 976.365 489.699C978.666 492.531 982.65 494.302 986.368 494.302C990.086 494.302 994.423 492.531 997.256 489.699C1000.09 486.954 1002.12 482.617 1002.48 478.722L1004.6 454.29H998.23L998.141 455.086Z" fill="#2E3192"/>
<path d="M1013.92 488.633C1017.1 492.173 1022.33 494.298 1027.28 494.298H1037.29L1041.98 441.008H1035.6L1034.45 454.197C1034.45 454.197 1034.72 454.375 1034.36 454.64C1034.19 454.906 1034.28 454.906 1033.39 454.906H1030.73C1025.78 454.906 1020.2 457.119 1016.31 460.748C1012.5 464.2 1009.84 469.6 1009.4 474.646C1008.96 479.692 1010.64 485.003 1013.92 488.633ZM1033.92 460.04L1031.44 488.19H1027.81C1019.94 488.19 1015.07 482.525 1015.77 474.646C1016.39 466.679 1022.33 461.014 1030.2 461.014H1032.77C1033.57 461.014 1034.19 460.925 1033.83 461.014L1033.92 460.04Z" fill="#2E3192"/>
<path d="M1060.84 494.303C1067.21 494.303 1071.64 491.205 1073.76 488.903L1075.8 486.336L1071.19 482.53L1069.07 485.008C1067.21 487.221 1065 488.195 1061.37 488.195C1055.7 488.195 1052.34 483.946 1051.89 476.953H1051.81L1050.92 476.067C1050.92 476.067 1051.45 476.422 1052.16 475.713C1052.34 475.625 1052.16 475.802 1052.25 475.802H1060.92C1065 475.802 1069.16 474.563 1071.9 472.527C1074.38 470.668 1076.33 467.569 1076.5 464.737C1076.77 462.081 1075.53 459.071 1073.58 457.301C1071.46 455.442 1068.01 454.291 1064.29 454.291C1062.07 454.291 1059.15 455.088 1057.12 456.062C1055.08 457.035 1053.22 458.54 1051.63 460.311C1048.35 463.94 1045.96 469.251 1045.52 474.297C1045.26 476.953 1045.61 478.723 1045.61 478.812C1045.88 482.087 1047.38 485.805 1049.15 488.284C1051.81 492.001 1056.41 494.303 1060.84 494.303ZM1063.85 460.399C1069.33 460.399 1070.4 462.347 1070.13 464.737C1070.04 466.153 1069.6 466.861 1068.09 467.923C1066.41 469.163 1064.55 469.694 1061.37 469.694H1052.78C1052.69 469.694 1052.51 469.605 1052.96 469.605C1054.46 464.206 1058.45 460.399 1063.85 460.399Z" fill="#2E3192"/>
<path d="M1125.55 483.236L1124.05 485.007C1122.19 487.22 1120.07 488.194 1116.35 488.194C1110.77 488.194 1107.32 483.945 1106.88 476.951H1106.79V476.863C1106.88 476.774 1106.43 476.42 1107.23 475.712C1107.41 475.535 1106.96 475.712 1107.14 475.712H1115.99C1119.98 475.712 1124.23 474.561 1126.88 472.525C1129.36 470.666 1131.31 467.48 1131.48 464.735C1131.75 462.08 1130.51 459.07 1128.56 457.299C1126.44 455.441 1122.9 454.29 1119.27 454.29C1117.06 454.29 1114.13 455.086 1112.1 456.06C1110.06 457.034 1108.11 458.539 1106.7 460.221C1103.33 463.939 1100.94 469.25 1100.5 474.296C1100.41 475.269 1100.41 476.332 1100.5 477.394L1100.59 478.722C1100.94 482.086 1102.36 485.804 1104.13 488.282C1106.88 492 1111.39 494.302 1115.82 494.302C1122.19 494.302 1126.62 491.203 1128.65 488.813L1130.69 486.335L1126.08 482.528L1125.55 483.236ZM1118.74 460.398C1124.31 460.398 1125.29 462.345 1125.02 464.735C1124.93 466.063 1124.49 466.86 1123.16 467.834C1121.39 469.161 1119.53 469.604 1116.52 469.604H1107.94C1109.53 464.204 1113.51 460.398 1118.74 460.398ZM1110.24 451.103L1113.07 455.352L1126.7 445.349L1123.43 440.392L1109.62 450.395L1110.24 451.103Z" fill="#2E3192"/>
<path d="M1183.94 493.595L1185.98 469.871C1186.33 465.976 1185.01 461.638 1182.7 458.894C1180.31 456.062 1176.42 454.291 1172.7 454.291C1168.98 454.291 1164.65 456.062 1161.72 458.894C1158.98 461.638 1156.86 465.976 1156.5 469.871L1154.38 494.303H1160.84L1162.96 469.871C1163.49 464.117 1167.04 460.399 1172.17 460.399C1177.22 460.399 1180.05 464.117 1179.52 469.871L1177.39 494.303H1183.85L1183.94 493.595Z" fill="#2E3192"/>
<path d="M1206.95 494.303C1209.25 494.303 1211.55 493.772 1213.77 492.71C1215.8 491.736 1218.46 490.054 1220.05 488.284C1223.5 484.654 1225.89 479.343 1226.34 474.297C1226.78 469.251 1225.27 463.851 1222.53 460.222C1221.2 458.452 1218.81 456.858 1216.95 455.796C1214.92 454.822 1212.79 454.291 1210.49 454.291C1208.28 454.291 1205.89 454.822 1203.76 455.796C1201.73 456.858 1199.16 458.452 1197.48 460.222C1194.02 463.851 1191.63 469.251 1191.19 474.297C1190.75 479.343 1192.25 484.654 1195 488.284C1196.41 490.054 1198.72 491.736 1200.58 492.71C1202.52 493.772 1204.74 494.303 1206.95 494.303ZM1209.96 460.399C1216.6 460.399 1220.58 466.153 1219.87 474.297C1219.16 482.53 1214.12 488.195 1207.48 488.195C1200.93 488.195 1196.95 482.53 1197.65 474.297C1198.36 466.153 1203.41 460.399 1209.96 460.399Z" fill="#2E3192"/>
<path d="M1244.64 494.303C1248.54 494.303 1252.78 493.064 1255.35 490.939C1257.74 488.903 1259.51 485.451 1259.78 482.264C1260.04 478.989 1258.54 475.713 1255.79 473.943C1253.58 472.527 1250.13 471.553 1247.3 470.845C1244.91 470.225 1242.96 469.782 1241.37 468.72C1239.77 467.746 1239.51 467.038 1239.68 465.268C1239.95 461.55 1241.72 460.399 1247.65 460.399C1250.31 460.399 1252.08 461.461 1253.4 463.674L1255.09 466.153L1260.4 462.258L1258.72 459.779C1256.41 456.504 1252.25 454.291 1248.18 454.291C1243.93 454.291 1239.77 455.442 1237.47 457.389C1235.17 459.16 1233.58 462.258 1233.31 465.268C1233.04 468.632 1234.55 471.907 1237.38 473.677C1239.51 475.094 1243.05 476.156 1245.7 476.864C1248.27 477.484 1250.13 477.926 1251.72 478.989C1253.23 479.962 1253.58 480.494 1253.4 482.264C1253.05 486.425 1250.66 488.195 1245.17 488.195C1238.89 488.195 1238.18 486.867 1236.85 485.008L1235.26 482.53L1229.95 486.336L1231.72 488.903C1232.6 490.054 1234.46 491.913 1236.67 492.975C1238.71 493.949 1241.19 494.303 1244.64 494.303Z" fill="#2E3192"/>
<path d="M1277.56 494.3C1281.45 494.3 1285.7 493.061 1288.27 490.936C1290.66 488.9 1292.43 485.448 1292.69 482.261C1292.96 478.986 1291.45 475.71 1288.71 473.94C1286.5 472.524 1283.04 471.55 1280.21 470.842C1277.82 470.222 1275.87 469.779 1274.28 468.717C1272.69 467.743 1272.42 467.035 1272.6 465.265C1272.86 461.547 1274.63 460.396 1280.56 460.396C1283.22 460.396 1284.99 461.458 1286.32 463.671L1288 466.15L1293.31 462.255L1291.63 459.776C1289.33 456.501 1285.17 454.288 1281.1 454.288C1276.85 454.288 1272.69 455.439 1270.38 457.386C1268.08 459.157 1266.49 462.255 1266.22 465.265C1265.96 468.629 1267.46 471.904 1270.3 473.674C1272.42 475.091 1275.96 476.153 1278.62 476.861C1281.18 477.481 1283.04 477.923 1284.64 478.986C1286.14 479.959 1286.5 480.491 1286.32 482.261C1285.96 486.422 1283.57 488.192 1278.09 488.192C1271.8 488.192 1271.09 486.864 1269.77 485.005L1268.17 482.527L1262.86 486.333L1264.63 488.9C1265.52 490.051 1267.37 491.91 1269.59 492.972C1271.62 493.946 1274.1 494.3 1277.56 494.3Z" fill="#2E3192"/>
<path d="M1311.74 494.392C1315.28 494.392 1319.53 492.975 1322.27 490.939C1325.19 488.726 1327.23 485.185 1327.49 482.087L1328.91 466.596C1329.18 463.409 1327.76 459.868 1325.28 457.743C1322.98 455.619 1319.26 454.291 1315.81 454.291C1311.3 454.291 1306.16 456.504 1303.42 459.779L1301.38 462.347L1305.98 466.065L1308.02 463.586C1309.88 461.461 1312.09 460.399 1315.28 460.399C1320.24 460.399 1322.8 462.878 1322.54 466.596L1322.27 468.72C1322.27 469.428 1322.27 469.428 1322.1 469.605C1321.74 469.871 1321.56 469.694 1321.56 469.694H1313.86C1310.23 469.694 1306.07 471.022 1303.33 473.146C1300.5 475.271 1298.37 478.812 1298.02 482.087C1297.75 485.185 1299.34 488.726 1301.82 490.939C1304.21 492.975 1308.11 494.392 1311.74 494.392ZM1321.03 475.802C1321.3 475.802 1321.92 475.802 1321.65 475.89L1321.12 482.087C1321.03 483.769 1320.41 484.92 1318.55 486.248C1316.61 487.664 1314.84 488.195 1312.27 488.195C1309.61 488.195 1308.02 487.664 1306.25 486.248C1304.83 484.92 1304.3 483.769 1304.39 482.087C1304.57 480.228 1305.28 479.166 1307.05 477.838C1308.99 476.422 1310.76 475.802 1313.42 475.802H1321.03Z" fill="#2E3192"/>
<path d="M1403.55 458.894C1401.34 456.062 1397.36 454.291 1393.64 454.291C1389.92 454.291 1385.58 456.062 1382.75 458.894C1381.96 459.602 1381.42 460.311 1381.6 460.134C1381.78 460.488 1381.16 459.602 1380.63 458.894C1378.24 456.062 1374.34 454.291 1370.62 454.291C1366.91 454.291 1362.57 456.062 1359.65 458.894C1356.9 461.638 1354.78 465.976 1354.43 469.871L1352.3 494.303H1358.76L1360.89 469.871C1361.42 464.117 1364.96 460.399 1370.09 460.399C1375.14 460.399 1377.97 464.117 1377.44 469.871L1375.32 494.303H1381.78L1383.9 469.871C1384.43 464.117 1388.06 460.399 1393.11 460.399C1398.15 460.399 1401.08 464.117 1400.55 469.871L1398.42 494.303H1404.79L1406.92 469.871C1407.27 465.976 1405.94 461.638 1403.55 458.894Z" fill="#2E3192"/>
<path d="M1416.65 494.301H1422.05L1425.59 454.2H1419.13L1415.59 494.301H1416.65ZM1423.38 442.781C1422.05 442.781 1419.92 444.551 1419.83 445.791L1419.75 446.676C1419.66 447.915 1421.43 449.686 1422.76 449.686C1423.91 449.686 1426.12 447.915 1426.21 446.676L1426.3 445.791C1426.39 444.551 1424.53 442.781 1423.38 442.781Z" fill="#2E3192"/>
<path d="M1444.67 494.303C1448.56 494.303 1452.81 493.064 1455.38 490.939C1457.77 488.903 1459.54 485.451 1459.8 482.264C1460.07 478.989 1458.57 475.713 1455.82 473.943C1453.61 472.527 1450.16 471.553 1447.32 470.845C1444.93 470.225 1442.99 469.782 1441.39 468.72C1439.8 467.746 1439.53 467.038 1439.71 465.268C1439.98 461.55 1441.75 460.399 1447.68 460.399C1450.33 460.399 1452.1 461.461 1453.43 463.674L1455.11 466.153L1460.42 462.258L1458.74 459.779C1456.44 456.504 1452.28 454.291 1448.21 454.291C1443.96 454.291 1439.8 455.442 1437.5 457.389C1435.2 459.16 1433.6 462.258 1433.34 465.268C1433.07 468.632 1434.58 471.907 1437.41 473.677C1439.53 475.094 1443.07 476.156 1445.73 476.864C1448.3 477.484 1450.16 477.926 1451.75 478.989C1453.25 479.962 1453.61 480.494 1453.43 482.264C1453.08 486.425 1450.69 488.195 1445.2 488.195C1438.91 488.195 1438.21 486.867 1436.88 485.008L1435.28 482.53L1429.97 486.336L1431.74 488.903C1432.63 490.054 1434.49 491.913 1436.7 492.975C1438.74 493.949 1441.22 494.303 1444.67 494.303Z" fill="#2E3192"/>
<path d="M1477.59 494.302C1481.48 494.302 1485.73 493.062 1488.3 490.938C1490.69 488.902 1492.46 485.449 1492.72 482.263C1492.99 478.987 1491.48 475.712 1488.74 473.942C1486.53 472.525 1483.08 471.551 1480.24 470.843C1477.85 470.224 1475.91 469.781 1474.31 468.719C1472.72 467.745 1472.45 467.037 1472.63 465.266C1472.9 461.548 1474.67 460.398 1480.6 460.398C1483.25 460.398 1485.02 461.46 1486.35 463.673L1488.03 466.152L1493.34 462.257L1491.66 459.778C1489.36 456.503 1485.2 454.29 1481.13 454.29C1476.88 454.29 1472.72 455.44 1470.42 457.388C1468.12 459.158 1466.52 462.257 1466.26 465.266C1465.99 468.63 1467.5 471.905 1470.33 473.676C1472.45 475.092 1475.99 476.155 1478.65 476.863C1481.22 477.482 1483.08 477.925 1484.67 478.987C1486.17 479.961 1486.53 480.492 1486.35 482.263C1486 486.423 1483.61 488.194 1478.12 488.194C1471.83 488.194 1471.12 486.866 1469.8 485.007L1468.2 482.528L1462.89 486.335L1464.66 488.902C1465.55 490.053 1467.41 491.911 1469.62 492.974C1471.66 493.947 1474.13 494.302 1477.59 494.302Z" fill="#2E3192"/>
<path d="M1528.85 466.867C1528.94 466.601 1528.85 466.69 1528.94 466.601C1529.21 463.415 1527.7 459.874 1525.31 457.749C1523.01 455.625 1519.2 454.297 1515.75 454.297C1511.24 454.297 1506.19 456.51 1503.45 459.785L1501.41 462.352L1506.01 466.07L1508.05 463.592C1509.91 461.467 1512.03 460.405 1515.22 460.405C1520.18 460.405 1522.83 462.883 1522.57 466.601L1522.3 468.726C1522.21 469.434 1522.3 469.434 1522.13 469.611C1521.68 469.877 1521.77 469.7 1521.59 469.7H1513.8C1510.26 469.7 1506.1 471.027 1503.27 473.152C1500.44 475.277 1498.31 478.817 1497.96 482.093C1497.69 485.191 1499.29 488.732 1501.77 490.945C1504.24 492.981 1508.14 494.309 1511.68 494.309C1515.22 494.309 1519.47 492.981 1522.3 490.945C1525.14 488.732 1527.26 485.191 1527.53 482.093L1528.68 468.726C1528.68 468.726 1528.76 468.549 1528.76 468.46L1528.85 466.867ZM1521.15 482.093C1521.06 483.775 1520.35 484.925 1518.5 486.253C1516.64 487.67 1514.78 488.201 1512.21 488.201C1509.56 488.201 1507.96 487.67 1506.28 486.253C1504.77 484.925 1504.33 483.775 1504.42 482.093C1504.6 480.234 1505.22 479.171 1507.08 477.844C1508.94 476.427 1510.71 475.808 1513.36 475.808H1521.06C1521.24 475.808 1521.86 475.808 1521.68 475.896L1521.15 482.093ZM1512.74 448.1C1513.27 447.127 1513.18 447.392 1513.01 447.569C1513.01 447.569 1513.18 448.012 1513.63 448.454C1514.69 449.34 1516.9 450.933 1518.85 450.933C1519.12 450.933 1519.56 450.844 1519.82 450.844C1521.68 450.402 1524.34 448.012 1525.75 445.533L1527.08 443.143L1521.59 440.487L1519.91 443.586C1519.03 445.179 1518.76 445.002 1519.2 444.825C1519.12 444.825 1518.85 444.382 1518.23 443.851C1516.9 442.7 1514.6 440.93 1512.21 441.461C1510.53 441.904 1508.14 444.117 1506.81 446.241L1505.57 448.543L1511.06 451.199L1512.74 448.1Z" fill="#2E3192"/>
<path d="M1549.17 494.303C1551.48 494.303 1553.78 493.772 1555.99 492.71C1558.03 491.736 1560.68 490.054 1562.28 488.284C1565.73 484.654 1568.12 479.343 1568.56 474.297C1569 469.251 1567.5 463.851 1564.75 460.222C1563.43 458.452 1561.04 456.858 1559.18 455.796C1557.14 454.822 1555.02 454.291 1552.72 454.291C1550.5 454.291 1548.11 454.822 1545.99 455.796C1543.95 456.858 1541.39 458.452 1539.7 460.222C1536.25 463.851 1533.86 469.251 1533.42 474.297C1532.98 479.343 1534.48 484.654 1537.22 488.284C1538.64 490.054 1540.94 491.736 1542.8 492.71C1544.75 493.772 1546.96 494.303 1549.17 494.303ZM1552.18 460.399C1558.82 460.399 1562.81 466.153 1562.1 474.297C1561.39 482.53 1556.35 488.195 1549.71 488.195C1543.16 488.195 1539.17 482.53 1539.88 474.297C1540.59 466.153 1545.63 460.399 1552.18 460.399Z" fill="#2E3192"/>
</svg>
